<?xml version="1.0" standalone="no"?>
<!DOCTYPE svg PUBLIC "-//W3C//DTD SVG 1.1//EN" "http://www.w3.org/Graphics/SVG/1.1/DTD/svg11.dtd" >
<svg xmlns="http://www.w3.org/2000/svg">
  <metadata>Created by iconfont</metadata>
  <defs>
  <font id="iconfont" horiz-adv-x="1024">
    <font-face
      font-family="iconfont"
      font-weight="400"
      font-stretch="normal"
      units-per-em="1024"
      ascent="896"
      descent="-128"
    />
      <missing-glyph />
      
      <glyph glyph-name="qushuiyin" unicode="&#59017;" d="M279.868 393.511l-36.236 71.112h-38.953v-161.246h39.633v77.225l22.873-39.859h25.365l22.874 39.859v-77.225h39.632V464.623h-38.954zM817.509 464.623h-48.465l-46.653-57.071v57.071h-39.179v-161.246h39.179v50.502l13.587 15.627 37.142-66.129h46.201L762.476 399.4zM849.245 636.581l1.555 1.348c12.521 10.852 13.874 29.798 3.023 42.319-10.854 12.521-29.8 13.873-42.318 3.023l-45.923-39.8H215c-66.72 0-121-54.28-121-121V245.53c0-52.616 33.761-97.487 80.754-114.11l-1.555-1.348c-12.521-10.852-13.874-29.798-3.023-42.318 5.933-6.846 14.284-10.353 22.684-10.353 6.963 0 13.96 2.411 19.635 7.329l45.923 39.8H809c66.72 0 121 54.28 121 121V522.471c0 52.615-33.761 97.487-80.755 114.11zM215 190.529c-30.327 0-55 24.673-55 55V522.471c0 30.327 24.673 55 55 55h474.429L559.221 464.623h-23.668v-20.512l-51.32-44.478-23.641 64.99h-30.573l-58.656-161.247h1.805l-130.21-112.847H215z m360.685 208.965l30.94 26.815c5.069-2.916 7.692-8.249 7.692-13.549 0-7.854-5.74-15.805-16.712-15.805h-21.921v2.539z m-136.669-39.048h-7.188l14.494 43.03 9.099-28.812-16.405-14.218zM864 245.529c0-30.327-24.673-55-55-55H334.571l140.464 121.736 2.767-8.889h41.445l-13.056 35.89 29.361 25.446v-61.337h39.632V363.39h13.362l28.534-60.014h45.974l-34.876 67.261c12.682 6.342 26.27 20.156 26.27 42.123 0 14.968-6.146 29.571-17.94 39.448L781.04 577.469H809c30.327 0 55-24.673 55-55v-276.94z"  horiz-adv-x="1024" />
      
      <glyph glyph-name="shuiyin" unicode="&#59002;" d="M145.606194 556.824774a382.018065 382.018065 0 1 1 671.050322-365.336774l-50.90271 27.714065a323.88129 323.88129 0 0 0-215.04-161.560775 324.046452 324.046452 0 1 0 221.547355 458.818065l52.091871 25.434839-0.066064 0.132129a382.051097 382.051097 0 0 1-678.680774 14.798451zM622.492903 203.776l-35.179355 42.413419a166.086194 166.086194 0 0 0-175.863742-23.023484 166.350452 166.350452 0 0 0-72.175483 237.766194 166.284387 166.284387 0 0 0 244.537806 43.965936l34.023226 43.338322a221.514323 221.514323 0 0 1-234.859355 24.344774 221.184 221.184 0 0 1-90.673548-82.910967 221.382194 221.382194 0 0 1 330.091354-285.960259l0.099097 0.066065zM768.924903 407.122581a58.797419 58.797419 0 0 1-59.722322 4.954838l-18.663226-9.017806a115.745032 115.745032 0 0 0-108.907355 4.261161 56.286968 56.286968 0 0 1-59.656258-1.750709l-38.053161-25.401807a29.729032 29.729032 0 1 0-32.999226 49.482323l38.086193 25.368774a115.745032 115.745032 0 0 0 122.615742 3.633548c16.218839-9.51329 36.104258-10.273032 52.983742-2.081032l18.630194 9.050839a118.255484 118.255484 0 0 0 120.138322-10.074839 58.797419 58.797419 0 0 1 58.566194-5.549419l2.873806 1.32129a29.729032 29.729032 0 0 0 24.774194-54.040774l-2.873807-1.321291a118.255484 118.255484 0 0 0-117.793032 11.164904zM768.924903 285.563871a58.797419 58.797419 0 0 1-59.722322 4.954839l-18.663226-9.017807a115.745032 115.745032 0 0 0-108.907355 4.228129 56.286968 56.286968 0 0 1-59.656258-1.750709l-38.053161-25.368775a29.729032 29.729032 0 1 0-32.999226 49.482323l38.086193 25.368774a115.745032 115.745032 0 0 0 122.615742 3.633549c16.218839-9.51329 36.104258-10.273032 52.983742-2.081033l18.630194 9.017807a118.255484 118.255484 0 0 0 120.138322-10.041807 58.797419 58.797419 0 0 1 58.566194-5.549419l2.873806 1.32129a29.729032 29.729032 0 0 0 24.774194-54.040774l-2.873807-1.32129a118.255484 118.255484 0 0 0-117.793032 11.131871z"  horiz-adv-x="1024" />
      
      <glyph glyph-name="mail" unicode="&#58937;" d="M159.936 704.064h704a64 64 0 0 0 64-64v-512a64 64 0 0 0-64-64h-704a64 64 0 0 0-64 64v512a64 64 0 0 0 64 64z m25.664-64L512 422.528l326.336 217.6H185.6z m-25.664-512h704V580.288L511.936 345.6l-352 234.688V128z"  horiz-adv-x="1024" />
      
      <glyph glyph-name="screen" unicode="&#58938;" d="M799.9488 768H224.0512a64 64 0 0 1-46.4896-19.968l-5.1712-6.1952a64 64 0 0 1 7.6288-84.3264l235.8784-223.232v-498.2784l192.1536 144.0256v354.304l235.9296 223.232a64 64 0 0 1-44.032 110.4384zM224.0512 704h575.8976l-255.9488-242.2272v-349.696l-64.1024-48.0256 0.0512 397.7216L224.0512 704zM640 384m30.72 0l143.36 0q30.72 0 30.72-30.72l0 0q0-30.72-30.72-30.72l-143.36 0q-30.72 0-30.72 30.72l0 0q0 30.72 30.72 30.72ZM640 261.12m30.72 0l143.36 0q30.72 0 30.72-30.72l0 0q0-30.72-30.72-30.72l-143.36 0q-30.72 0-30.72 30.72l0 0q0 30.72 30.72 30.72ZM640 138.24m30.72 0l143.36 0q30.72 0 30.72-30.72l0 0q0-30.72-30.72-30.72l-143.36 0q-30.72 0-30.72 30.72l0 0q0 30.72 30.72 30.72Z"  horiz-adv-x="1024" />
      
      <glyph glyph-name="rectangle" unicode="&#58939;" d="M264.704 704h593.344a32 32 0 0 0 31.552-37.376l-98.752-576a32 32 0 0 0-31.552-26.624H165.952a32 32 0 0 0-31.552 37.376l98.752 576A32 32 0 0 0 264.704 704z"  horiz-adv-x="1024" />
      
      <glyph glyph-name="search1" unicode="&#58940;" d="M432.384 768a304.384 304.384 0 0 0 236.672-495.808l225.664-225.664-45.248-45.248-225.664 225.664A304.384 304.384 0 1 0 432.384 768z m0-64a240.384 240.384 0 1 1 0-480.768 240.384 240.384 0 0 1 0 480.768z"  horiz-adv-x="1024" />
      
      <glyph glyph-name="info-circle-filled" unicode="&#58941;" d="M512 832a448 448 0 1 0 0-896A448 448 0 0 0 512 832z m32.384-352h-64V128h64V480zM550.4 640H473.6v-76.8h76.8V640z"  horiz-adv-x="1024" />
      
      <glyph glyph-name="jiahao" unicode="&#60147;" d="M469.333333 426.666667V725.333333h85.333334v-298.666666h298.666666v-85.333334h-298.666666v-298.666666h-85.333334v298.666666H170.666667v85.333334h298.666666z"  horiz-adv-x="1024" />
      
      <glyph glyph-name="full-screen" unicode="&#58966;" d="M960.605-36.345v240.231c0.045 7.2-2.723 14.445-8.213 19.98-11.115 11.047-29.002 11.047-40.071 0-5.535-5.535-8.303-12.757-8.303-19.98v-171.923l-351.99 352.035 351.99 352.013v-171.855c0-7.245 2.767-14.49 8.303-20.002 11.070-11.070 28.957-11.070 40.071 0 5.49 5.511 8.257 12.78 8.213 20.002v240.187c0.045 7.223-2.723 14.468-8.213 20.003-5.58 5.511-12.803 8.279-20.025 8.302h-240.233c-7.222 0-14.467-2.79-19.98-8.302-11.115-11.049-11.115-28.957 0-40.050 5.511-5.535 12.735-8.302 19.98-8.279h171.9l-352.013-352.013-352.012 352.035h171.855c7.268-0.022 14.49 2.745 20.025 8.279 11.070 11.047 11.070 29.002 0 40.050-5.49 5.511-12.758 8.279-20.025 8.303h-240.187c-7.268 0-14.513-2.79-20.025-8.303-5.513-5.558-8.279-12.803-8.279-20.048v-240.165c0-7.245 2.79-14.512 8.279-20.002 11.070-11.070 28.98-11.070 40.028 0 5.513 5.511 8.279 12.713 8.279 20.002v171.855l352.058-352.012-352.035-352.035v171.922c0 7.2-2.745 14.445-8.279 19.98-11.070 11.047-29.002 11.047-40.028 0-5.558-5.535-8.279-12.757-8.279-19.98v-240.231c0-7.223 2.79-14.468 8.279-20.048 5.535-5.468 12.757-8.279 20.025-8.279h240.188c7.268 0 14.49 2.745 20.025 8.279 11.070 11.047 11.070 29.002 0 40.050-5.535 5.535-12.78 8.257-20.025 8.257h-171.877l352.012 352.035 352.013-352.035h-171.9c-7.222 0-14.467-2.768-19.98-8.257-11.115-11.049-11.115-29.002 0-40.050 5.511-5.468 12.735-8.279 19.98-8.279h240.255c7.2 0 14.445 2.813 20.025 8.279 5.467 5.602 8.19 12.825 8.19 20.048z"  horiz-adv-x="1024" />
      
      <glyph glyph-name="suoxiao" unicode="&#60435;" d="M919.264-9.984l-138.912 138.912C851.808 203.68 896 304.672 896 416c0 229.376-186.624 416-416 416S64 645.376 64 416s186.624-416 416-416c95.008 0 182.432 32.384 252.544 86.208l141.44-141.44a31.904 31.904 0 0 1 45.248 0 32 32 0 0 1 0.032 45.248zM128 416C128 610.08 285.92 768 480 768s352-157.92 352-352-157.92-352-352-352S128 221.92 128 416zM625.792 448H336a32 32 0 0 1 0-64h289.792a32 32 0 1 1 0 64z"  horiz-adv-x="1024" />
      
      <glyph glyph-name="fangda" unicode="&#60436;" d="M919.264-9.984l-138.912 138.912C851.808 203.68 896 304.672 896 416c0 229.376-186.624 416-416 416S64 645.376 64 416s186.624-416 416-416c95.008 0 182.432 32.384 252.544 86.208l141.44-141.44a31.904 31.904 0 0 1 45.248 0 32 32 0 0 1 0.032 45.248zM128 416C128 610.08 285.92 768 480 768s352-157.92 352-352-157.92-352-352-352S128 221.92 128 416zM625.792 448H512v112a32 32 0 0 1-64 0V448h-112a32 32 0 0 1 0-64H448v-112a32 32 0 1 1 64 0V384h113.792a32 32 0 1 1 0 64z"  horiz-adv-x="1024" />
      
      <glyph glyph-name="qianjin" unicode="&#58914;" d="M793.1392 352l-198.8096-198.8096a32 32 0 0 1 45.2608-45.2608l249.856 249.856a37.12 37.12 0 0 1 0 52.48l-249.856 249.8048a32 32 0 0 1-45.2608-45.2608l198.8096-198.8096H153.6a32 32 0 1 1 0-64h639.5392z"  horiz-adv-x="1024" />
      
      <glyph glyph-name="houtui" unicode="&#58936;" d="M192.125 347.591L418.327 121.39a36.409 36.409 0 0 0-51.496-51.496L82.55 354.174a42.234 42.234 0 0 0 0 59.71l284.28 284.222a36.409 36.409 0 0 0 51.496-51.496L192.125 420.41H919.78a36.409 36.409 0 1 0 0-72.818H192.125z"  horiz-adv-x="1024" />
      
      <glyph glyph-name="shanchu" unicode="&#60539;" d="M928.16 752H736V832a32 32 0 0 1-32 32H320a32 32 0 0 1-32-32v-80H95.84a32 32 0 0 1 0-64H129.6l77.92-698.656A96 96 0 0 1 302.912-96h418.144a96.032 96.032 0 0 1 95.424 85.344L894.4 688h33.728a32 32 0 0 1 0.032 64zM352 800h320v-48H352V800z m400.896-803.552a32 32 0 0 0-31.808-28.448H302.912a32 32 0 0 0-31.808 28.448L193.984 688h636.032l-77.12-691.552zM608 75.072a32 32 0 0 1 32 32V576.896a32 32 0 0 1-64 0v-469.824a32 32 0 0 1 32-32zM432 75.072a32 32 0 0 1 32 32V576.896a32 32 0 0 1-64 0v-469.824a32 32 0 0 1 32-32z"  horiz-adv-x="1024" />
      
      <glyph glyph-name="sidebar_p1" unicode="&#58935;" d="M512.1024 590.9504c154.0608 0 278.8352-126.464 278.8352-282.368l-0.0512-274.7392h95.6416c16.1792 0 29.3376-13.312 29.3376-29.696 0-16.384-13.1584-29.7472-29.3376-29.7472l-95.6416 0.0512V-25.6H233.3696L233.216-25.6 137.728-25.6a29.8496 29.8496 0 1 0-20.7872 50.688 29.0816 29.0816 0 0 0 20.7872 8.704l95.5392 0.0512v274.7392c0 155.904 124.7744 282.368 278.8352 282.368z m0-51.2c-122.0096 0-221.7472-97.536-227.328-220.2624l-0.3072-10.9056v-274.7392h455.2192v274.7392c0 124.1088-96.256 225.2288-216.8832 230.912l-10.7008 0.256z m20.224-140.1856L512 277.7088h81.2544L491.6736 115.2 512 237.056H430.7456l101.5808 162.5088z m381.0816 161.9968a26.112 26.112 0 0 0 0.1536-0.2048l4.608-8.0896a26.112 26.112 0 0 0-9.472-35.4304l-78.848-46.08a362.3424 362.3424 0 0 1-32.1536 52.3264l80.0768 46.848a26.112 26.112 0 0 0 35.6352-9.3696zM146.0224 571.0848a26.112 26.112 0 0 0 0.2048-0.1536l80.1792-46.848c-12.1856-16.4352-22.9888-33.9456-32.256-52.3776l-78.848 46.08a26.112 26.112 0 0 0-9.472 35.4816l4.608 8.0896a26.112 26.112 0 0 0 35.584 9.728z m172.1344 152.064a26.112 26.112 0 0 0 0.1536-0.3072l48.5376-85.1456a354.816 354.816 0 0 1-53.248-29.8496l-48.2816 84.6848a26.112 26.112 0 0 0 9.472 35.4304l7.68 4.5056a26.112 26.112 0 0 0 35.6864-9.3696z m423.0656 9.472a26.112 26.112 0 0 0 0.256-0.1536l7.68-4.5056a26.112 26.112 0 0 0 9.5232-35.4304l-48.2304-84.5312a354.816 354.816 0 0 1-53.248 29.7984l48.4864 85.0432a26.112 26.112 0 0 0 35.5328 9.728zM516.352 793.6a26.112 26.112 0 0 0 26.112-26.112v-99.84a357.0688 357.0688 0 0 1-60.928-0.0512V767.488A26.112 26.112 0 0 0 507.6992 793.6h8.704z"  horiz-adv-x="1024" />
      
      <glyph glyph-name="sidebar_c1" unicode="&#58915;" d="M512 819.2A435.2 435.2 0 0 1 76.8 384a435.2 435.2 0 0 1 435.2-435.2 435.2 435.2 0 0 1 435.2 435.2A435.2 435.2 0 0 1 512 819.2z m0-51.2a384 384 0 1 0 0-768 384 384 0 1 0 0 768zM634.88 373.76c16.9984 0 30.72 14.6432 30.72 32.8704 0 18.2272-13.7216 32.9216-30.72 32.9216h-60.928l85.504 122.2144a34.56 34.56 0 0 1-6.144 46.08 29.44 29.44 0 0 1-43.008-6.6048L512 460.8512 413.696 601.2416a29.44 29.44 0 0 1-43.008 6.6048 34.56 34.56 0 0 1-6.144-46.08l85.504-122.2144H389.12c-16.9984 0-30.72-14.6944-30.72-32.9216 0-18.2272 13.7216-32.9216 30.72-32.9216h92.16v-52.736H389.12c-16.9984 0-30.72-14.7456-30.72-32.9216 0-18.2272 13.7216-32.9216 30.72-32.9216h92.16v-68.608c0-18.2272 13.7216-32.9216 30.72-32.9216 16.9984 0 30.72 14.6944 30.72 32.9216v68.608h92.16c16.9984 0 30.72 14.6944 30.72 32.9216 0 18.176-13.7216 32.9216-30.72 32.9216h-92.16v52.736h92.16z"  horiz-adv-x="1024" />
      
      <glyph glyph-name="sidebar_d1" unicode="&#58916;" d="M921.6 128a51.2 51.2 0 0 0-51.2-51.2H153.6a51.2 51.2 0 0 0-51.2 51.2V640a51.2 51.2 0 0 0 51.2 51.2h716.8a51.2 51.2 0 0 0 51.2-51.2v-512z m-51.2 307.2H153.6v-307.2h716.8V435.2zM358.4 265.5744a25.6 25.6 0 0 0 0-51.2H204.8a25.6 25.6 0 0 0 0 51.2h153.6zM870.4 640H153.6v-153.6h716.8V640z"  horiz-adv-x="1024" />
      
      <glyph glyph-name="sidebar_b1" unicode="&#58917;" d="M206.1824 345.7536c0 22.272 16.64 40.6528 38.1952 43.3664l5.4784 0.3584h229.376v131.072H402.7904a27.2896 27.2896 0 0 0-27.3408 27.2896V766.3104c0 15.0528 12.288 27.2896 27.3408 27.2896h218.4192c15.104 0 27.3408-12.2368 27.3408-27.2896V547.84a27.2896 27.2896 0 0 0-27.3408-27.2896H544.768l-0.0512-131.072h229.4272c22.272 0 40.6528-16.6912 43.3664-38.2464l0.3072-5.4784v-98.304h76.4928c15.0528 0 27.2896-12.1856 27.2896-27.2896v-218.4704a27.2896 27.2896 0 0 0-27.2896-27.2896H675.84a27.2896 27.2896 0 0 0-27.2896 27.2896V220.16c0 15.104 12.1856 27.2896 27.2896 27.2896h76.4416v76.4928H271.7184v-76.4928H348.16c15.104 0 27.2896-12.1856 27.2896-27.2896v-218.4704A27.2896 27.2896 0 0 0 348.16-25.6H129.6896A27.2896 27.2896 0 0 0 102.4 1.6896V220.16c0 15.104 12.2368 27.2896 27.2896 27.2896h76.4928v98.304z m493.5168-149.4528V25.6H870.4v170.7008h-170.7008zM153.6 196.3008V25.6h170.6496v170.7008H153.6z m443.6992 375.4496V742.4H426.6496v-170.6496h170.6496z"  horiz-adv-x="1024" />
      
      <glyph glyph-name="sidebar_a1" unicode="&#58918;" d="M536.9344 802.1504l336.7424-187.4944a51.2 51.2 0 0 0 26.3168-44.7488v-371.8144a51.2 51.2 0 0 0-26.3168-44.7488l-336.7424-187.4944a51.2 51.2 0 0 0-49.8176 0l-336.7936 187.4944a51.2 51.2 0 0 0-26.3168 44.7488V569.9072a51.2 51.2 0 0 0 26.3168 44.7488l336.7936 187.4944a51.2 51.2 0 0 0 49.8176 0z m311.808-232.2432L512 757.4016 175.2064 569.9072v-371.8144L512 10.5984l336.7936 187.4944V569.9072zM508.0064 508.7744a128 128 0 1 0 0-256 128 128 0 0 0 0 256z m0-51.2a76.8 76.8 0 1 1 0-153.6 76.8 76.8 0 0 1 0 153.6z"  horiz-adv-x="1024" />
      
      <glyph glyph-name="sidebar_e1" unicode="&#58919;" d="M861.0816 768c19.3024 0 34.9184-15.616 34.9184-34.9184v-698.1632a34.9184 34.9184 0 0 0-34.9184-34.9184H162.9184a34.9184 34.9184 0 0 0-34.9184 34.9184V733.0816c0 19.3024 15.616 34.9184 34.9184 34.9184h698.1632z m-16.2816-51.2h-665.6v-665.6h665.6v665.6z m-433.3056-414.464a23.04 23.04 0 0 0 0-32.5632l-41.472-41.472 41.472-41.472a23.04 23.04 0 0 0-32.5632-32.5632l-41.472 41.472-41.472-41.472a23.04 23.04 0 0 0-32.5632 32.5632l41.472 41.472-41.472 41.472a23.04 23.04 0 0 0 32.5632 32.5632l41.472-41.4208 41.472 41.472a23.04 23.04 0 0 0 32.5632 0z m356.7616-89.3952a23.04 23.04 0 0 0 0-46.08h-163.3792a23.04 23.04 0 1 0 0 46.08h163.328z m0 76.8a23.04 23.04 0 0 0 0-46.08h-163.3792a23.04 23.04 0 1 0 0 46.08h163.328zM337.408 640.256a23.04 23.04 0 0 0 23.04-23.04V558.592h58.624a23.04 23.04 0 0 0 0-46.08H360.448v-58.6752a23.04 23.04 0 0 0-46.08 0V512.512H255.744a23.04 23.04 0 1 0 0 46.08H314.368V617.216a23.04 23.04 0 0 0 23.04 23.04z m430.7968-81.7152a23.04 23.04 0 0 0 0-46.08h-163.3792a23.04 23.04 0 1 0 0 46.08h163.328z"  horiz-adv-x="1024" />
      
      <glyph glyph-name="sidebar_f1" unicode="&#58920;" d="M301.8752 691.2l9.8816-16.64a34.304 34.304 0 0 1 29.5424-16.6912 34.4576 34.4576 0 0 1 26.6752 12.544l2.9184 4.1472L380.7744 691.2H870.4c26.2656 0 47.9232-19.2512 50.8416-44.0832l0.3584-5.8368v-565.76c0-25.6-19.7632-46.6944-45.2096-49.5616L870.4 25.6H380.7744l-9.8304 16.64a34.304 34.304 0 0 1-29.5936 16.6912 34.4576 34.4576 0 0 1-26.624-12.544l-2.9696-4.1472-9.8816-16.64H153.6a50.7392 50.7392 0 0 0-50.8416 44.0832L102.4 75.52V641.28c0 25.6 19.7632 46.6944 45.2096 49.5616L153.6 691.2h148.2752z m-28.3648-51.2H153.6v-563.2h119.9104l2.8672 3.584a85.6576 85.6576 0 0 0 57.4464 29.3888l7.5264 0.3584c25.1904 0 48.896-11.008 64.9216-29.696l2.8672-3.6352H870.4V640H409.088l-2.816-3.584a85.6576 85.6576 0 0 0-57.4464-29.3888l-7.5264-0.3584c-25.1392 0-48.8448 11.008-64.9216 29.696L273.5104 640zM358.4 512a25.6 25.6 0 0 0 25.6-25.6v-256a25.6 25.6 0 1 0-51.2 0V486.4a25.6 25.6 0 0 0 25.6 25.6z m384-230.4a25.6 25.6 0 1 0 0-51.2h-204.8a25.6 25.6 0 1 0 0 51.2h204.8z m0 204.8a25.6 25.6 0 1 0 0-51.2h-204.8a25.6 25.6 0 1 0 0 51.2h204.8z"  horiz-adv-x="1024" />
      
      <glyph glyph-name="sidebar_h1" unicode="&#58922;" d="M518.4 812.8a435.2 435.2 0 1 0 0-870.4 435.2 435.2 0 0 0 0 870.4z m0-51.2a384 384 0 0 1-383.1808-358.6048l2.1504 0.2048H346.624l116.1728 119.4496a35.84 35.84 0 0 0 50.688 0.7168l101.888-111.9232a25.6 25.6 0 0 0-34.5088-37.5808l-3.3792 3.072-89.3952 98.304-109.2096-112.384a35.84 35.84 0 0 0-19.968-10.3936l-5.7344-0.4608H137.3696l-2.1504 0.1536a384 384 0 0 1 764.672-18.432l-3.6352-0.3072h-209.3056l-116.0704-119.4496a35.84 35.84 0 0 0-46.1824-4.4544l-4.5056 3.7376-101.888 111.9232a25.6 25.6 0 0 0 34.5088 37.5808l3.4304-3.1232 89.2928-98.2528 109.2608 112.3328a35.84 35.84 0 0 0 19.968 10.4448l5.7344 0.4608h215.7568c2.048 0 4.096-0.256 6.144-0.768a384 384 0 0 1-384 377.7536z"  horiz-adv-x="1024" />
      
      <glyph glyph-name="sidebar_n1" unicode="&#58923;" d="M819.2 793.6a51.2 51.2 0 0 0 51.2-51.2v-716.8a51.2 51.2 0 0 0-51.2-51.2H256a51.2 51.2 0 0 0-51.2 51.2v153.6h-25.6a25.6 25.6 0 1 0 0 51.2H204.8v153.6h-25.6a25.6 25.6 0 0 0 0 51.2H204.8V588.8h-25.6a25.6 25.6 0 0 0 0 51.2H204.8V742.4a51.2 51.2 0 0 0 51.2 51.2h563.2z m0-51.2H256v-102.4h25.6a25.6 25.6 0 0 0 0-51.2H256v-153.6h25.6a25.6 25.6 0 0 0 0-51.2H256v-153.6h25.6a25.6 25.6 0 1 0 0-51.2H256v-153.6h563.2V742.4z m-199.68-165.2736c8.4992 12.8512 24.576 15.5136 35.84 5.8368 11.264-9.728 13.6192-28.0576 5.12-40.96l-71.2704-108.6464h50.7904c14.1824 0 25.6-13.056 25.6-29.2352 0-16.1792-11.4176-29.2352-25.6-29.2352H563.2v-46.9504h76.8c14.1824 0 25.6-13.056 25.6-29.2352 0-16.1792-11.4176-29.2352-25.6-29.2352H563.2v-61.0304c0-16.1792-11.4176-29.2352-25.6-29.2352s-25.6 13.056-25.6 29.2352v61.0304H435.2c-14.1824 0-25.6 13.056-25.6 29.2352 0 16.1792 11.4176 29.2352 25.6 29.2352H512v46.9504H435.2c-14.1824 0-25.6 13.056-25.6 29.2352 0 16.1792 11.4176 29.2352 25.6 29.2352h50.7904L414.72 542.0032a32.1536 32.1536 0 0 0 5.12 40.96c11.264 9.728 27.3408 7.0144 35.84-5.8368l81.92-124.8256z"  horiz-adv-x="1024" />
      
      <glyph glyph-name="sidebar_i1" unicode="&#58924;" d="M707.328 793.6c8.4992 0 16.64-3.3792 22.6304-9.3696l105.472-105.2672a32.0512 32.0512 0 0 0 9.3696-22.6816v-641.8432c0-22.1184-17.92-40.0384-40.0384-40.0384H219.2384a40.0384 40.0384 0 0 0-40.0384 40.0384V753.5616c0 22.1184 17.92 40.0384 40.0384 40.0384h488.0896z m-7.936-51.2H230.4v-716.8h563.2V648.2944L699.392 742.4z m-51.6096-385.1776c10.9056-10.752 11.0592-28.3136 0.3072-39.2192l-0.3072-0.3072-154.4704-152.1664a28.16 28.16 0 0 0-0.9728-1.024l-0.3072-0.3072a28.4672 28.4672 0 0 0-12.9536-7.3216 28.5696 28.5696 0 0 0-27.392 7.2192l-1.3312 1.6384-75.9808 74.8032a27.6992 27.6992 0 0 0-0.3072 39.2192l0.3072 0.3072a28.5696 28.5696 0 0 0 40.1408 0l57.3952-56.576 135.7824 133.7344a28.5696 28.5696 0 0 0 40.0896 0z m0.8192 212.992a29.7984 29.7984 0 0 0 0-59.5968H375.3984a29.7984 29.7984 0 0 0 0 59.5456h273.2032z"  horiz-adv-x="1024" />
      
      <glyph glyph-name="sidebar_j1" unicode="&#58925;" d="M814.592 793.6c25.856 0 47.1552-19.456 50.0736-44.4928l0.3072-5.888v-402.8928h21.1456c4.5568 0 8.3968-3.1232 9.5232-7.3216l0.3584-2.6112v-323.7376a24.7808 24.7808 0 0 0-20.3264-24.3712l-4.4544-0.4096H152.7808a24.7808 24.7808 0 0 0-24.3712 20.3264L128 6.656v323.7376c0 4.5568 3.072 8.3968 7.2704 9.5232l2.6112 0.3584 22.8864 0.0512V582.1952a76.8 76.8 0 0 0 69.4272 76.4416l7.424 0.3584h115.3536V743.2192c0 25.856 19.456 47.104 44.544 50.0224L403.3024 793.6h411.2896zM232.2944 289.1264H179.2v-256h665.6v256h-50.0736l-37.888-55.04a81.92 81.92 0 0 0-59.392-34.9696l-8.0384-0.4096h-350.208a81.92 81.92 0 0 0-61.696 28.0064l-4.9152 6.144-40.3456 56.2688zM352.9728 607.744H237.6192a25.6 25.6 0 0 1-25.1904-20.992l-0.4096-4.608-0.0512-241.8688h36.096a20.48 20.48 0 0 0 14.0288-5.632l2.56-2.9696 49.5616-68.9664a30.72 30.72 0 0 1 20.0704-12.4416l4.864-0.4096 13.824 0.0512V607.7952z m460.8 134.656h-409.6v-492.4928h285.2352a30.72 30.72 0 0 1 22.1184 9.3696l3.1744 3.84 47.104 68.2496a20.48 20.48 0 0 0 12.9024 8.4992l3.9424 0.3584 35.1232 0.0512V742.4512z m-68.4032-292.9664a29.7984 29.7984 0 0 0 0-59.5456H472.1664a29.7984 29.7984 0 0 0 0 59.5456h273.2032z m0 153.6a29.7984 29.7984 0 0 0 0-59.5456H472.1664a29.7984 29.7984 0 0 0 0 59.5456h273.2032z"  horiz-adv-x="1024" />
      
      <glyph glyph-name="sidebar_l1" unicode="&#58926;" d="M512 793.6a409.6 409.6 0 1 0 0-819.2 409.6 409.6 0 0 0 0 819.2z m0-51.2a358.4 358.4 0 1 1 0-716.8 358.4 358.4 0 0 1 0 716.8z m28.7744-135.0144l5.1712-4.608 177.1008-180.3264a51.2 51.2 0 0 0 0-71.7312l-177.1008-180.3776a51.2 51.2 0 0 0-67.8912-4.608l-5.12 4.608-177.152 180.3776a51.2 51.2 0 0 0 0 71.68l177.152 180.3776a51.2 51.2 0 0 0 67.84 4.608z m-33.28-35.7376l-1.7408-1.1264L328.704 390.144a5.12 5.12 0 0 1-1.0752-5.4784l1.0752-1.6896 177.152-180.3776a5.12 5.12 0 0 1 5.5296-1.0752l1.6896 1.1264 177.0496 180.3264a5.12 5.12 0 0 1 1.1264 5.4784l-1.1264 1.6896-177.152 180.4288a5.12 5.12 0 0 1-5.5296 1.0752z m11.3152-183.296v-77.4144H498.176v57.088h-41.472v-57.088h-20.736V388.4032h82.944z m-45.4656-23.552l3.8912-13.824h0.3072l3.84 13.824h12.544l-3.84-13.824h5.0176v-17.92H486.4v-22.1184h-18.0224v22.0672h-8.704v18.0224h5.0176L460.8 364.8h12.4928z m90.4192 99.7376v-14.4384h19.5584v-88.7296h-20.0192v-28.16h9.0112l-1.6896 21.1968h14.3872l3.328-41.1136H521.728v19.8656h21.5552v28.2112h-19.8656V450.0992h20.0192v14.4384h20.3776zM512 435.456v-40.6016H442.7776v40.6016H512z m7.9872 26.6752v-20.224H434.7392v20.224h85.248zM490.3936 410.9824V419.328H464.384v-8.3456h26.112z m55.296-28.16v45.824H537.6v-45.8752h8.192z m23.4496 0v45.824h-8.192v-45.8752h8.192z"  horiz-adv-x="1024" />
      
      <glyph glyph-name="sidebar_k1" unicode="&#58927;" d="M537.4464 804.8128l332.3904-188.416c16.1792-9.1136 26.1632-26.2656 26.1632-44.8512v-375.0912c0-18.5856-9.984-35.7376-26.112-44.8512l-332.4416-188.416a51.5584 51.5584 0 0 0-50.8928 0l-332.3904 188.416a51.5584 51.5584 0 0 0-26.1632 44.8512V571.5456c0 18.5856 9.984 35.7376 26.112 44.8512l332.4416 188.416c15.7696 8.9088 35.1232 8.9088 50.8928 0zM512 759.9104L179.5584 571.5456v-375.0912L512 8.0384l332.4416 188.416V571.5456L512 759.9616z m-161.3312-414.72l0.4608-5.376v-119.04c0-33.8944-51.0976-35.6864-56.4736-5.3248l-0.4608 5.3248v119.04c0 33.8944 51.0976 35.6864 56.4736 5.3248z m158.208 17.408l0.4096-5.3248v-136.448c0-33.9456-51.0464-35.7376-56.4224-5.376l-0.512 5.376v136.448c0 33.9456 51.0976 35.7376 56.4736 5.376z m158.208 67.9936l0.4096-5.3248v-204.3904c0-33.8944-51.0976-35.6864-56.4736-5.3248l-0.4608 5.3248V425.2672c0 33.8944 51.0976 35.6864 56.4736 5.3248z m-10.5472 193.7408a28.672 28.672 0 0 0 22.1184-10.6496c5.4272-5.0176 8.5504-11.776 7.4752-19.2512l-1.1264-4.608V494.08c0-33.9456-51.0976-35.7376-56.4736-5.376l-0.4608 5.376V522.752c-82.5344-78.848-194.6624-130.56-312.1152-125.1328-36.5056 1.6896-36.7104 57.2416 0 55.552 100.3008-4.608 198.0928 38.6048 269.6704 105.8304l10.0352 9.7792h-33.7408c-34.816 0-36.608 49.8688-5.4784 55.0912l5.4784 0.512h94.6176z"  horiz-adv-x="1024" />
      
      <glyph glyph-name="sidebar_m1" unicode="&#58928;" d="M486.656 793.6a409.4976 409.4976 0 0 0 408.1664-378.0096h0.1024v-2.048A409.4976 409.4976 0 0 0 486.6048-25.6l-0.3584 86.4256 0.3584 513.9456V793.6z m292.7104-616.192h-81.2544a444.0064 444.0064 0 0 0-118.272-139.5712 358.8096 358.8096 0 0 1 199.5264 139.5712z m-140.544 0l-101.2224 0.0512v-107.3152a393.216 393.216 0 0 1 101.2224 107.264z m60.5696 185.9584l-161.792-0.7168v-133.9904h128.7168c18.688 41.9328 30.1056 87.3984 33.0752 134.7072z m144.896 0.7168l-93.6448-0.4608a442.9824 442.9824 0 0 0-28.928-135.0144h87.808a356.5568 356.5568 0 0 1 34.7648 135.4752z m-177.152 182.0672h-129.3824l-0.0512-132.3008 161.5872 0.768a391.6288 391.6288 0 0 1-32.1536 131.584z m139.008 0H722.432c15.7696-41.472 25.3952-85.6576 28.16-131.2768l92.8768 0.4608a356.3008 356.3008 0 0 1-37.3248 130.816z m-268.288 160.1536l-0.1024-108.9536h102.1952a393.0112 393.0112 0 0 1-102.0928 108.9536z m58.4704 18.944l2.0992-1.7408a443.8528 443.8528 0 0 0 100.7104-126.1568h75.3664a358.912 358.912 0 0 1-178.176 127.9488zM435.0464 793.6V660.736h-0.0512v-222.5152l0.1536-88.8832-0.1536 0.0512v-226.048h0.1024v-75.6736l-0.1024 0.0512V-25.6h-51.1488l-0.0512 71.0656-10.6496 0.1536c-74.496 2.6112-133.376 23.552-176.7424 62.72-46.4896 41.728-69.2736 98.304-68.352 169.6768h84.0704c2.0992-37.5296 10.9568-67.9424 26.5216-91.3408 28.1088-41.472 76.4928-63.3344 145.152-65.536v239.9232l-46.6432 10.5472C278.6816 384.8192 237.312 399.36 212.992 415.232c-41.984 27.648-62.976 68.864-62.976 123.7504 0 59.392 20.5312 108.1856 61.5936 146.2784C252.3136 722.944 309.76 741.9904 383.7952 742.4l0.0512 51.2h51.2zM383.488 664.9856c-52.7872 0-90.7264-11.1104-113.8176-33.28-23.04-22.2208-34.6112-48.0256-34.6112-77.4144 0-32.4096 13.5168-56.1152 40.448-71.0656 16.5888-9.0112 52.6848-20.0704 108.288-33.28v215.04H383.488z"  horiz-adv-x="1024" />
      
      <glyph glyph-name="sidebar_t1" unicode="&#58929;" d="M768 768a76.8 76.8 0 0 0 76.4416-69.4272L844.8 691.2v-428.9024a25.6 25.6 0 0 0-50.7904-4.608l-0.4096 4.608V691.2a25.6 25.6 0 0 1-20.992 25.1904L768 716.8H256a25.6 25.6 0 0 1-25.1904-20.992L230.4 691.2v-614.4a25.6 25.6 0 0 1 20.992-25.1904L256 51.2h364.6976a25.6 25.6 0 0 0 4.608-50.7904l-4.608-0.4096H256a76.8 76.8 0 0 0-76.4416 69.4272L179.2 76.8V691.2a76.8 76.8 0 0 0 69.4272 76.4416L256 768h512z m-56.0128-580.608a6.0928 6.0928 0 0 0 8.192 0.1536l21.1456-18.432 0.4608-0.3584a6.0928 6.0928 0 0 0-0.256-8.6016l-17.92-16.9984h100.4032c3.3792 0 6.0928-2.7136 6.0928-6.0928v-35.84a6.0928 6.0928 0 0 0-6.0928-6.0928h-100.4032l17.92-16.9472 0.4096-0.4608a6.0928 6.0928 0 0 0-0.6144-8.5504l-21.1968-18.432a6.0928 6.0928 0 0 0-8.1408 0.2048l-67.4304 63.7952a6.0928 6.0928 0 0 0 0 8.8064zM363.52 396.8a30.72 30.72 0 0 0 30.72-30.72v-82.5856a30.72 30.72 0 0 0-61.44 0V366.08a30.72 30.72 0 0 0 30.72 30.72zM512 492.8a30.72 30.72 0 0 0 30.72-30.72v-178.5856a30.72 30.72 0 0 0-61.44 0V462.08a30.72 30.72 0 0 0 30.72 30.72zM660.48 588.8a30.72 30.72 0 0 0 30.72-30.72v-274.5856a30.72 30.72 0 0 0-61.44 0V558.08a30.72 30.72 0 0 0 30.72 30.72z"  horiz-adv-x="1024" />
      
      <glyph glyph-name="sidebar_s1" unicode="&#58930;" d="M796.8256 768c26.4704 0 47.9744-21.504 47.9744-48.0256v-671.9488c0-26.5216-21.504-48.0256-48.0256-48.0256H227.2256a47.9744 47.9744 0 0 0-48.0256 48.0256V719.9744c0 26.4704 21.504 47.9744 48.0256 47.9744h569.6z m0-48.0256H227.1744v-671.9488h569.6V719.9744z m-89.3952-315.6992a23.6544 23.6544 0 0 0 33.28 4.8128c10.496-7.936 12.6464-23.04 4.7616-33.5872l-66.2016-89.088h47.2064c13.1072 0 23.7568-10.752 23.7568-24.064 0-13.2608-10.6496-23.9616-23.7568-23.9616h-71.3216v-38.4512h71.3216c13.1072 0 23.7568-10.752 23.7568-24.064 0-13.2608-10.6496-23.9616-23.7568-23.9616h-71.3216v-50.0224c0-13.312-10.6496-24.0128-23.808-24.0128a23.8592 23.8592 0 0 0-23.7568 24.0128v50.0224h-71.3216a23.8592 23.8592 0 0 0-23.7568 24.0128c0 13.2608 10.5984 24.0128 23.7568 24.0128h71.3216v38.4512h-71.3216a23.8592 23.8592 0 0 0-23.7568 24.0128c0 13.312 10.5984 24.0128 23.7568 24.0128h47.2064l-66.2016 89.088a24.1664 24.1664 0 0 0 4.7616 33.5872 23.6544 23.6544 0 0 0 33.28-4.8128l76.032-102.4z m-224.256 90.112a28.8256 28.8256 0 0 0 0-57.6H303.104a28.8256 28.8256 0 0 0 0 57.6h180.1216z m237.7216 129.6384a28.7744 28.7744 0 1 0 0-57.6H303.104a28.8256 28.8256 0 0 0 0 57.6h417.792z"  horiz-adv-x="1024" />
      
      <glyph glyph-name="sidebar_o1" unicode="&#58931;" d="M512 793.6c186.1632 0 384-59.2384 384-168.96v-485.2224C891.1872 32.2048 695.9104-25.6 512-25.6c-183.8592 0-379.136 57.8048-383.8976 164.9664H128V626.5856l0.512 7.4752C139.4688 737.792 331.264 793.6 512 793.6zM176.128 209.9712v-80.9984c21.6576-52.8384 158.208-106.3936 335.872-106.3936 177.664 0 314.2144 53.5552 335.872 106.3936V209.92c-63.7952-51.5584-186.88-84.992-335.872-84.992-148.992 0-272.0768 33.4336-335.872 84.992z m671.744 156.928c-63.7952-51.6096-186.88-84.992-335.872-84.992-148.992 0-272.0768 33.3824-335.872 84.992v-83.8144c16.128-54.0672 149.504-109.9264 335.872-109.9264 186.3168 0 319.6928 55.808 335.872 109.8752z m0 172.544C777.7792 484.5568 642.048 455.68 512 455.68s-265.8304 28.8768-335.872 83.7632v-99.4816c16.128-54.016 149.504-109.8752 335.872-109.8752 186.3168 0 319.6928 55.808 335.872 109.8752zM512 745.4208c-193.8944 0-338.8416-63.7952-338.8416-120.832 0-56.9856 144.896-120.7296 338.8416-120.7296 193.8944 0 338.8416 63.744 338.8416 120.7808 0 56.9856-144.896 120.7808-338.8416 120.7808z m132.4544-65.6384a14.6432 14.6432 0 0 0 1.3312-24.9344L503.1424 557.3632a51.2 51.2 0 0 0-57.7536 0l-65.6896 44.8512a17.3568 17.3568 0 0 0 0.2048 28.7744 38.656 38.656 0 0 0 42.8544-0.1536l45.9776-30.8224a10.24 10.24 0 0 1 11.2128-0.1536l123.136 78.4384a40.9088 40.9088 0 0 0 41.3696 1.536z"  horiz-adv-x="1024" />
      
      <glyph glyph-name="sidebar_g1" unicode="&#58932;" d="M484.352-51.2l-0.1536 0.8704a435.2 435.2 0 0 0-403.968 488.96l-0.2048 0.1536 1.1264 6.8608a432.64 432.64 0 0 0 14.08 64l0.7168 2.5088A431.7184 431.7184 0 0 0 422.1952 809.984l1.8432 0.3072-1.8432-0.3072a439.296 439.296 0 0 0 34.9184 5.7856l1.3824 0.1536c3.8912 0.512 7.7824 0.9216 11.6736 1.28l1.5872 0.1536c13.2608 1.2288 26.6752 1.8432 40.2432 1.8432h-0.9216 0.9728l13.312-0.1024 10.24-0.3072 8.96-0.7168 2.7648-0.3072A435.2 435.2 0 0 0 512-51.2h-27.648z m27.648 819.2l-7.936-0.1024-5.5296-0.1536 5.5296 0.1536-6.144-0.1536h0.6144a395.1104 395.1104 0 0 1-13.1072-0.6656l12.4928 0.6656a388.2496 388.2496 0 0 1-13.5168-0.7168l1.024 0.0512a392.8576 392.8576 0 0 1-12.8-1.0752l11.776 1.024a386.048 386.048 0 0 1-14.2336-1.28l2.4576 0.256a391.0656 391.0656 0 0 1-11.6736-1.3824l9.216 1.1264a384.1536 384.1536 0 0 1-16.2304-2.0992l7.0144 1.024c-3.84-0.512-7.68-1.1264-11.4688-1.7408l4.4544 0.7168c-4.608-0.7168-9.2672-1.536-13.8752-2.3552l9.4208 1.6384a388.3008 388.3008 0 0 1-11.0592-1.9456l1.6384 0.3072a384.5632 384.5632 0 0 1-294.912-263.5776c-2.2016-7.0656-4.096-14.1824-5.888-21.4528l-0.7168-3.1744 10.5472-3.4304c30.208-9.3696 55.9104-15.7184 80.384-19.456l12.2368-1.7408a141.1584 141.1584 0 0 1 87.8592 22.016c20.3264 16.5376 46.7968 23.552 72.704 19.2512l5.2736-1.536c25.8048-10.3424 48.64-26.9312 66.1504-47.7696 5.6832-6.5024 12.1856-12.288 19.2512-17.2032l-0.3584 0.256-2.2528 1.6896 10.6496-3.584c18.5344-5.632 37.6832-9.1136 56.9344-10.24l29.0816-0.8704c19.456-1.1776 38.6048-4.7616 57.1904-10.6496l5.0688-2.2016a178.5344 178.5344 0 0 0 83.3024-109.9264c5.4272-23.3472-1.7408-47.7696-19.456-64.8704-16.128-14.8992-32.256-20.8384-65.2288-25.6512l-19.712-2.56c-14.4384-0.512-28.672-3.6352-37.632-6.912-16.6912-11.3152-58.368-82.1248-62.72-109.1072a347.9552 347.9552 0 0 1-1.024-66.6112l1.1776-11.5712 11.9296 0.5632 0.4608 0.0512a384.512 384.512 0 0 1 303.5136 190.464l6.8608 12.3904c54.6304 102.8608 59.2384 217.2416 15.0528 320.1536l-1.9968 4.4544-1.6384-7.424a57.9584 57.9584 0 0 0-14.5408-26.112l-4.096-4.1984a83.8656 83.8656 0 0 0-40.4992-15.616l-7.7824-0.4096-0.768-2.4064a129.0752 129.0752 0 0 0-14.08-26.2656l-6.3488-8.6016a55.3984 55.3984 0 0 0-39.9872-15.5136 85.504 85.504 0 0 0-14.848 1.536c-40.3968 7.4752-114.432 45.2608-128.8704 78.1312a82.944 82.944 0 0 0-0.512 52.3264 82.432 82.432 0 0 1 2.7648 25.8048l-0.6656 6.3488-7.8336 2.7648a118.6304 118.6304 0 0 0-52.5312 41.984l-5.632 8.704c-11.264 23.6544-12.4416 67.4816-8.0896 126.6176l0.1536 1.7408L512 768zM388.096 439.7568a41.1648 41.1648 0 0 1-22.6816-6.5536l-5.4784-3.8912a193.6896 193.6896 0 0 0-123.2896-31.744c-33.792 4.096-66.8672 11.8784-106.7008 24.4224a384 384 0 0 1 346.4192-420.352 396.8512 396.8512 0 0 0 0.7168 83.8656c6.656 41.5232 55.808 124.928 89.088 146.944a163.7376 163.7376 0 0 0 58.0608 13.1072l8.6016 1.1264 14.3872 2.1504c16.896 2.9184 25.2416 6.0928 30.7712 11.2128a16.7936 16.7936 0 0 1 4.864 15.36A126.976 126.976 0 0 1 623.616 353.28l2.048-1.28-7.936 2.1504a184.4224 184.4224 0 0 1-22.4256 4.1472l-11.3664 1.024-26.5216 0.768a297.8304 297.8304 0 0 0-87.9616 18.1248l-5.7856 2.9696a160.4096 160.4096 0 0 0-28.8256 25.9072l-6.5024 7.168c-11.264 11.4176-24.8832 20.4288-39.8848 26.4704l2.7136-1.2288z m180.992 323.9936l-0.512-7.168-1.1264-20.48-0.6144-18.8416-0.0512-16.6912c0-2.6112 0.1024-5.12 0.1536-7.4752l0.768-12.9024c0.6656-7.68 1.7408-13.312 3.1744-16.384 8.4992-13.9776 21.8112-24.4224 39.3728-29.952 5.6832-2.2528 11.264-4.9152 16.6912-7.8848l9.5232-5.2736 2.816-10.496c6.144-22.784 6.144-46.7968-0.4608-71.0656a33.2288 33.2288 0 0 1-0.8704-18.944c4.8128-10.8544 65.3312-41.728 90.7776-46.4384a36.864 36.864 0 0 1 6.5536-0.6144l1.4336-0.0512 0.0512-0.4096 3.6864 5.2736a72.704 72.704 0 0 1 8.9088 20.992l1.4336 7.5776 4.096 30.3104 29.1328-9.4208c9.9328-3.2256 20.8384-1.4848 26.2656 2.1504a9.1136 9.1136 0 0 1 2.048 3.6352l1.1776 4.7104c0.2048 1.024 0.4096 2.048 0.5632 3.2768l1.1776 8.8064 2.1504 21.9648c0.7168 5.9904 1.7408 11.5712 3.1744 17.3568l1.8944 6.7584 2.816 9.9328a384 384 0 0 1-256.2048 157.696z"  horiz-adv-x="1024" />
      
      <glyph glyph-name="sidebar_r1" unicode="&#58933;" d="M863.0272 768c46.1312 0 84.1728-36.0448 84.1728-81.1008v-498.688c0-45.056-38.0416-81.0496-84.1728-81.0496H160.9728c-46.1824 0-84.1216 35.9936-84.1728 81.1008V686.8992c0 45.056 38.0416 81.1008 84.1728 81.1008z m0-51.2H160.9728c-18.432 0-32.9728-13.7728-32.9728-29.9008v-498.6368c0-16.1792 14.4896-29.9008 32.9728-29.9008h702.0544c18.432 0 32.9728 13.7216 32.9728 29.9008V686.8992c0 16.128-14.4896 29.9008-32.9728 29.9008zM481.3824 622.9504c8.0384 0 15.4624-3.9936 19.456-10.496l35.584-57.344a19.712 19.712 0 0 0 0-20.9408l-12.5952-20.224 31.232-20.48 15.1552 24.6784a22.8864 22.8864 0 0 0 19.456 10.496h69.8368c8.0384 0 15.4624-4.0448 19.456-10.496l34.816-56.1664a19.712 19.712 0 0 0 0-20.992l-34.816-56.1664a22.8864 22.8864 0 0 0-19.456-10.4448h-69.8368a23.04 23.04 0 0 0-17.9712 8.704l-39.68-16.5888 18.176-29.3376a19.712 19.712 0 0 0 0-20.992l-50.2272-80.9472a22.8864 22.8864 0 0 0-19.456-10.496H379.392a22.8864 22.8864 0 0 0-19.456 10.496l-49.7664 80.9984a19.712 19.712 0 0 0 0 20.992l50.176 80.9472a22.8864 22.8864 0 0 0 19.5072 10.496h40.192l5.888 37.7344h-15.6672a22.8864 22.8864 0 0 0-19.6096 10.4448l-35.4304 57.344a19.712 19.712 0 0 0 0 20.992l35.4304 57.2928a22.8864 22.8864 0 0 0 19.6096 10.496z m30.72-127.232l-11.264-18.8928a22.8864 22.8864 0 0 0-19.456-10.4448h-32.6656l-5.8368-37.7344h37.4784c8.0384 0 15.4624-3.9936 19.456-10.496l20.4288-33.4336 39.424 16.4864-24.6784 39.7824a19.712 19.712 0 0 0 0 20.992l8.192 13.312-31.0784 20.4288zM131.6864 25.6C115.5072 25.6 102.4 37.6832 102.4 52.48c0 14.848 13.1072 26.88 29.2864 26.88l760.6272 0.5632c16.1792 0 29.2864-12.032 29.2864-26.88 0-14.848-13.1072-26.88-29.2864-26.88L131.6864 25.6c0.0512 0 0 0 0 0z"  horiz-adv-x="1024" />
      
      <glyph glyph-name="sidebar_q1" unicode="&#58934;" d="M512.512 793.6a408.8832 408.8832 0 0 0 408.576-396.4928l0.512-35.1232h-44.3392c0-214.016-173.4656-387.584-387.4304-387.584A387.5328 387.5328 0 0 0 102.4 361.984a387.5328 387.5328 0 0 0 375.3472 387.4304l12.0832 0.1536V793.6z m-22.6816-92.2624a339.2512 339.2512 0 0 1-339.2-339.3536 339.2512 339.2512 0 0 1 339.2-339.3024 339.2512 339.2512 0 0 1 338.944 327.8848l0.256 11.4176H489.8304V701.3376z m45.4144 46.1312v-340.0192h339.968l-1.024 12.6464a363.4688 363.4688 0 0 1-337.7664 327.3216l-1.1776 0.0512z m194.56-121.9584l-83.6096-156.16h-18.1248l83.6096 156.16h18.1248z m3.072-70.912c11.7248 0 20.6848-4.0448 26.9312-12.4416 5.4272-7.168 8.3456-16.8448 8.3456-28.8256 0-11.776-2.9184-21.504-8.3456-28.8256a32.256 32.256 0 0 0-26.88-12.2368c-11.6736 0-20.8384 4.1984-27.136 12.2368-5.7856 7.5776-8.4992 17.0496-8.4992 28.8256 0 11.9808 2.7136 21.6576 8.5504 28.8256 6.2464 8.3968 15.36 12.4416 27.0848 12.4416z m0-15.36c-5.1712 0-8.9088-2.7648-11.008-8.192a49.664 49.664 0 0 1-2.5088-17.7152 49.152 49.152 0 0 1 2.5088-17.4592c2.048-5.4784 5.8368-8.192 11.0592-8.192 4.9664 0 8.5504 2.9184 10.8032 8.6016a53.248 53.248 0 0 1 2.304 17.0496 48.3328 48.3328 0 0 1-2.5088 17.4592c-2.048 5.6832-5.632 8.3968-10.5984 8.3968z m-107.52 83.3024c11.6736 0 20.6336-3.9936 26.88-12.3904 5.4272-7.168 8.3456-16.896 8.3456-28.8256 0-11.776-2.9184-21.504-8.3456-28.8768a32.256 32.256 0 0 0-26.88-12.1856c-11.6736 0-20.8384 4.1984-27.0848 12.1856-5.8368 7.5776-8.5504 17.0496-8.5504 28.8768 0 11.9808 2.7136 21.6576 8.5504 28.8256 6.2464 8.3968 15.4112 12.3904 27.136 12.3904z m0-15.36c-5.1712 0-8.96-2.7136-11.008-8.192a49.664 49.664 0 0 1-2.56-17.664 49.152 49.152 0 0 1 2.56-17.5104c2.048-5.4272 5.8368-8.192 11.008-8.192 5.0176 0 8.5504 2.9696 10.8544 8.6528a53.248 53.248 0 0 1 2.304 17.0496 48.3328 48.3328 0 0 1-2.56 17.408c-2.048 5.7344-5.5808 8.448-10.5984 8.448z"  horiz-adv-x="1024" />
      
      <glyph glyph-name="sidebar_t" unicode="&#58909;" d="M796.8256 768c26.4704 0 47.9744-21.504 47.9744-48.0256v-671.9488c0-26.5216-21.504-48.0256-48.0256-48.0256H227.2256a47.9744 47.9744 0 0 0-48.0256 48.0256V719.9744c0 26.4704 21.504 47.9744 48.0256 47.9744h569.6z m-117.6576-579.7888l-67.4304-63.7952a6.0928 6.0928 0 0 1 0-8.8064l67.4304-63.8464a6.0928 6.0928 0 0 1 8.192-0.1536l21.1456 18.432a6.0928 6.0928 0 0 1 0.2048 8.96l-17.92 16.9984h100.352a6.0928 6.0928 0 0 1 6.144 6.0928v35.84a6.0928 6.0928 0 0 1-6.144 6.0416h-100.352l17.92 16.9984a6.0928 6.0928 0 0 1 0.256 8.6016l-0.4608 0.4096-21.1968 18.432a6.0928 6.0928 0 0 1-8.192-0.2048zM363.52 422.4a30.72 30.72 0 0 1-30.72-30.72v-82.5856a30.72 30.72 0 0 1 61.44 0V391.68a30.72 30.72 0 0 1-30.72 30.72zM512 518.4a30.72 30.72 0 0 1-30.72-30.72v-178.5856a30.72 30.72 0 0 1 61.44 0V487.68a30.72 30.72 0 0 1-30.72 30.72zM660.48 614.4a30.72 30.72 0 0 1-30.72-30.72v-274.5856a30.72 30.72 0 1 1 61.44 0V583.68a30.72 30.72 0 0 1-30.72 30.72z"  horiz-adv-x="1024" />
      
      <glyph glyph-name="xiajiantou" unicode="&#58921;" d="M535.12 184.4L870.528 540.8a29.376 29.376 0 0 1 0 42.352 31.376 31.376 0 0 1-43.52 0l-315.2-334.912-315.2 334.912a31.376 31.376 0 0 1-43.52 0 29.376 29.376 0 0 1 0-42.352l335.408-356.4a36.272 36.272 0 0 1 46.624 0z"  horiz-adv-x="1024" />
      
      <glyph glyph-name="right" unicode="&#58913;" d="M249.6 6.399999999999977L627.285333 384 249.6 761.685333 347.733333 859.733333 823.381333 384l-475.648-475.648z"  horiz-adv-x="1024" />
      
      <glyph glyph-name="person" unicode="&#58911;" d="M5.688889 896h1024v-1024H5.688889V896zM517.688889 288c136.5504 0 265.6256-31.1808 381.6448-86.5792 21.3504-10.24 34.3552-32.1024 34.3552-55.808V0c0-17.664-14.336-32-32-32h-768a32 32 0 0 0-32 32v145.6128c0 23.7056 13.0048 45.568 34.3552 55.808A882.2784 882.2784 0 0 0 517.688889 288z m0-64a818.176 818.176 0 0 1-352-79.36v-112.64h704v112.64A818.176 818.176 0 0 1 517.688889 224zM517.688889 800a224 224 0 1 0 0-448 224 224 0 0 0 0 448z m0-64a160 160 0 1 1 0-320 160 160 0 0 1 0 320z"  horiz-adv-x="1137" />
      
      <glyph glyph-name="lock" unicode="&#58912;" d="M512 843.9567059999999a263.529412 263.529412 0 0 0 263.228235-250.75953l0.301177-12.769882V504.470588h112.941176c18.913882 0 34.575059-13.914353 37.225412-32.105412l0.421647-5.541647v-527.058823a37.647059 37.647059 0 0 0-32.105412-37.225412l-5.541647-0.421647H135.529412a37.647059 37.647059 0 0 0-37.225412 32.105412l-0.421647 5.541647v527.058823c0 18.913882 13.914353 34.575059 32.105412 37.225412L135.529412 504.470588h112.941176V580.4272940000001A263.529412 263.529412 0 0 0 512 843.9567059999999z m338.823529-414.780235H173.176471v-451.764706h677.647058v451.764706zM662.588235 203.29411800000003v-75.294118h-301.17647V203.29411800000003h301.17647zM512 768.662588a188.235294 188.235294 0 0 1-188.235294-188.235294V504.470588h376.470588V580.4272940000001c0 103.966118-84.329412 188.235294-188.235294 188.235294z"  horiz-adv-x="1024" />
      
      <glyph glyph-name="search" unicode="&#58910;" d="M405.845333 896a405.845333 405.845333 0 0 0 315.619556-661.105778l300.828444-300.828444-60.302222-60.302222-300.885333 300.771555A405.845333 405.845333 0 1 0 405.845333 896z m0-85.333333a320.512 320.512 0 1 1 0-641.080889 320.512 320.512 0 0 1 0 641.080889z"  horiz-adv-x="1024" />
      
      <glyph glyph-name="kjl_sidebar_a" unicode="&#58906;" d="M181.1456 742.4h275.712c15.2064 0 27.5968-12.3392 27.5968-27.5456v-275.712a27.5456 27.5456 0 0 0-27.5968-27.5968H181.1456A27.5456 27.5456 0 0 0 153.6 439.1424V714.8543999999999C153.6 730.0608 165.9392 742.4 181.1456 742.4z m0-385.9456h275.712c15.2064 0 27.5968-12.3904 27.5968-27.5968v-275.712a27.5456 27.5456 0 0 0-27.5968-27.5456H181.1456A27.5456 27.5456 0 0 0 153.6 53.145599999999945V328.85760000000005c0 15.2064 12.3392 27.5968 27.5456 27.5968z m385.9968 0h275.712c15.2064 0 27.5456-12.3904 27.5456-27.5968v-275.712a27.5456 27.5456 0 0 0-27.5456-27.5456H567.1424a27.5456 27.5456 0 0 0-27.5968 27.5456V328.85760000000005c0 15.2064 12.3904 27.5968 27.5968 27.5968zM539.5456 742.4m27.5456 0l275.7632 0q27.5456 0 27.5456-27.5456l0-275.7632q0-27.5456-27.5456-27.5456l-275.7632 0q-27.5456 0-27.5456 27.5456l0 275.7632q0 27.5456 27.5456 27.5456Z"  horiz-adv-x="1024" />
      
      <glyph glyph-name="kjl_home_top_head" unicode="&#58907;" d="M616.106667 212.22400000000005c-1.536 2.474667-3.797333 5.290667-7.381334 12.074667-9.557333 17.322667-17.28 82.346667-10.154666 107.776 2.389333 8.533333 6.784 22.442667 2.474666 29.994666-7.978667 13.952-20.48 27.477333-34.133333 32.938667-20.053333 7.936-33.152 7.936-54.912 5.546667-21.674667 2.56-34.816 2.432-54.784-5.546667-13.653333-5.461333-26.154667-18.986667-34.133333-32.938667-4.352-7.594667 0-21.461333 2.389333-29.994666 7.168-25.429333-0.554667-90.453333-10.112-107.776-4.266667-7.594667-6.4-10.325333-7.978667-13.098667 0 0-155.733333-175.061333-174.506666-335.573333H791.04s-91.306667 222.464-174.933333 336.64zM676.138667 486.4c-13.397333 0.810667-18.218667-16.554667-24.149334-28.074667 26.154667 65.109333-0.896 132.053333-36.608 162.389334-27.52 23.338667-67.968 35.157333-109.354666 36.693333-41.386667-1.536-81.834667-13.354667-109.354667-36.693333-35.712-30.378667-62.762667-97.28-36.608-162.389334-5.930667 11.392-10.752 28.885333-24.149333 28.074667-42.282667-2.56-32.768-51.712-22.741334-70.186667 9.984-18.474667 29.226667-32.853333 50.773334-33.706666a12.672 12.672 0 0 0 7.594666-1.664c1.365333-1.28 2.346667-2.901333 2.773334-4.693334 11.392-32.597333 20.949333-60.373333 48.853333-84.266666 23.594667-20.181333 55.893333-35.328 82.944-29.397334 27.050667-5.930667 59.306667 9.216 82.901333 29.397334 27.946667 23.893333 37.632 51.626667 48.853334 84.224a9.941333 9.941333 0 0 0 2.816 4.736 12.544 12.544 0 0 0 7.594666 1.706666c21.589333 0.853333 40.832 15.36 50.773334 33.664 10.026667 18.261333 19.413333 67.626667-22.912 70.186667zM337.322667 192.98133299999995L305.877333-128h351.317334l8.618666 313.642667-162.56-5.930667-165.973333 13.226667zM360.106667 458.282667s-6.016 56.917333 10.794666 77.909333c0 0-8.96 41.472 38.4 67.456 47.36 26.026667 163.413333 33.152 203.562667-11.818667 40.234667-44.970667 21.333333-63.914667 21.333333-63.914666s23.04-52.608 17.792-69.632c0 0 10.026667 25.728 24.149334 28.074666 0 0 8.96 78.72-5.674667 128.597334 0 0 22.186667 14.72 19.242667 35.242666-2.986667 20.565333-108.16 129.450667-239.232 95.317334-54.528-14.208-108.970667-67.328-118.912-105.898667-11.861333-46.122667-9.002667-67.797333-9.002667-67.797333s3.797333-62.848 18.944-87.210667c7.68-7.68 13.952-16.554667 18.56-26.325333zM562.432-128c-10.24 83.456-30.293333 255.488-30.293333 255.488l-39.082667-6.144c0-2.730667-18.090667-167.808-26.965333-249.344h96.341333zM529.28 106.66666699999996H499.2a18.005333 18.005333 0 0 0-17.408 13.312l-9.173333 33.792a18.005333 18.005333 0 0 0 17.408 22.784h48.554666a18.005333 18.005333 0 0 0 17.408-22.784l-9.173333-33.792a18.090667 18.090667 0 0 0-17.493333-13.312zM417.450667 248.96000000000004l-58.752-42.496s-173.738667-56.234667-204.458667-100.992C123.52 60.71466699999996 123.306667-128 123.306667-128h297.258666c-43.264 278.613333-3.072 376.96-3.072 376.96zM421.845333 254.12266699999998s45.525333-58.112 91.008-74.410667l-35.626666-10.112-18.986667-85.290667-95.232 81.237334 30.848 81.237333 27.989333 7.338667zM411.818667 260.821333L345.6 217.13066700000002a6.485333 6.485333 0 0 1-2.773333-3.797334l-42.794667-133.845333 59.306667-18.389333-63.530667-47.018667 22.784-142.08h118.912c-6.058667 52.181333-30.293333 273.834667-15.146667 382.122667a6.826667 6.826667 0 0 1-10.538666 6.698666zM666.794667 206.506667l-58.709334 42.453333s40.192-98.304-3.072-376.96h297.258667s-0.256 188.757333-31.018667 233.472c-30.72 44.714667-204.458667 100.992-204.458666 100.992zM605.568 254.12266699999998s-45.525333-58.112-90.837333-74.410667l35.669333-10.112 18.944-85.290667 95.061333 81.237334-30.890666 81.237333-27.946667 7.338667zM723.626667 79.48800000000006l-42.837334 134.144a6.485333 6.485333 0 0 1-2.730666 3.797333l-66.218667 43.52a6.826667 6.826667 0 0 1-10.581333-6.656c14.890667-108.330667-9.258667-329.941333-15.146667-382.122666h118.912l22.784 142.08-63.36 47.018666 59.136 18.218667z"  horiz-adv-x="1024" />
      
      <glyph glyph-name="kjl_sidebar_b" unicode="&#58908;" d="M512 793.6a31.1296 31.1296 0 0 0 18.944-6.3488l302.4896-232.704a28.9792 28.9792 0 0 0 11.3664-22.6816v-465.3568a27.9552 27.9552 0 0 0-8.8576-20.5312 30.1056 30.1056 0 0 0-15.5136-7.9872 31.3856 31.3856 0 0 0-5.888-0.512h-201.0112l0.3584 1.2288a36.4544 36.4544 0 0 1 1.024 8.448v252.0576a37.5296 37.5296 0 0 1-3.7888 16.128 28.8256 28.8256 0 0 1-6.144 8.0384 21.248 21.248 0 0 1-8.0896 4.352 17.3056 17.3056 0 0 1-4.352 0.512h-148.992a17.3056 17.3056 0 0 1-8.4992-2.2016 21.248 21.248 0 0 1-7.2704-6.2976 28.8256 28.8256 0 0 1-4.864-9.4208 35.84 35.84 0 0 1-1.6896-11.1104v-252.0576a37.5296 37.5296 0 0 1 1.28-9.728H209.4592a31.3856 31.3856 0 0 0-21.4016 8.5504 29.5424 29.5424 0 0 0-8.2944 14.848 27.904 27.904 0 0 0-0.5632 5.6832V531.8656a28.928 28.928 0 0 0 11.3664 22.7328L493.056 787.2A30.4128 30.4128 0 0 0 512 793.6zM814.592 25.600000000000023H209.408a30.8736 30.8736 0 0 0-25.088 13.1072 29.2352 29.2352 0 0 0-2.816 27.7504 29.2352 29.2352 0 0 0 16.384 15.9744 30.72 30.72 0 0 0 11.5712 2.2528h605.0816a30.8736 30.8736 0 0 0 25.1392-13.1584 29.0304 29.0304 0 0 0-8.3456-40.96 30.5152 30.5152 0 0 0-16.7936-4.9664z m30.208 29.5424a28.8256 28.8256 0 0 0-8.8576-20.8896 30.3104 30.3104 0 0 0-27.2896-8.0896 30.72 30.72 0 0 0-19.2512 12.544 29.184 29.184 0 0 0 0 32.8192 29.5936 29.5936 0 0 0 19.2512 12.5952 30.8736 30.8736 0 0 0 31.0272-12.5952 29.0304 29.0304 0 0 0 5.12-16.384z m-605.0816 0a28.7744 28.7744 0 0 0-8.8576-20.8896 30.0544 30.0544 0 0 0-21.4016-8.6528 30.8736 30.8736 0 0 0-25.1392 13.1072 29.2352 29.2352 0 0 0-2.816 27.7504 29.2352 29.2352 0 0 0 16.384 15.9744 30.72 30.72 0 0 0 39.5264-15.9744 28.9792 28.9792 0 0 0 2.304-11.3152z"  horiz-adv-x="1024" />
      
      <glyph glyph-name="swl_sidebar_a" unicode="&#58903;" d="M181.1456 742.4h275.712c15.2064 0 27.5968-12.3392 27.5968-27.5456v-275.712a27.5456 27.5456 0 0 0-27.5968-27.5968H181.1456A27.5456 27.5456 0 0 0 153.6 439.1424V714.8543999999999C153.6 730.0608 165.9392 742.4 181.1456 742.4z m0-385.9456h275.712c15.2064 0 27.5968-12.3904 27.5968-27.5968v-275.712a27.5456 27.5456 0 0 0-27.5968-27.5456H181.1456A27.5456 27.5456 0 0 0 153.6 53.145599999999945V328.85760000000005c0 15.2064 12.3392 27.5968 27.5456 27.5968z m385.9968 0h275.712c15.2064 0 27.5456-12.3904 27.5456-27.5968v-275.712a27.5456 27.5456 0 0 0-27.5456-27.5456H567.1424a27.5456 27.5456 0 0 0-27.5968 27.5456V328.85760000000005c0 15.2064 12.3904 27.5968 27.5968 27.5968zM539.5456 742.4m27.5456 0l275.7632 0q27.5456 0 27.5456-27.5456l0-275.7632q0-27.5456-27.5456-27.5456l-275.7632 0q-27.5456 0-27.5456 27.5456l0 275.7632q0 27.5456 27.5456 27.5456Z"  horiz-adv-x="1024" />
      
      <glyph glyph-name="swl_home_top_head" unicode="&#58904;" d="M616.106667 212.22400000000005c-1.536 2.474667-3.797333 5.290667-7.381334 12.074667-9.557333 17.322667-17.28 82.346667-10.154666 107.776 2.389333 8.533333 6.784 22.442667 2.474666 29.994666-7.978667 13.952-20.48 27.477333-34.133333 32.938667-20.053333 7.936-33.152 7.936-54.912 5.546667-21.674667 2.56-34.816 2.432-54.784-5.546667-13.653333-5.461333-26.154667-18.986667-34.133333-32.938667-4.352-7.594667 0-21.461333 2.389333-29.994666 7.168-25.429333-0.554667-90.453333-10.112-107.776-4.266667-7.594667-6.4-10.325333-7.978667-13.098667 0 0-155.733333-175.061333-174.506666-335.573333H791.04s-91.306667 222.464-174.933333 336.64zM676.138667 486.4c-13.397333 0.810667-18.218667-16.554667-24.149334-28.074667 26.154667 65.109333-0.896 132.053333-36.608 162.389334-27.52 23.338667-67.968 35.157333-109.354666 36.693333-41.386667-1.536-81.834667-13.354667-109.354667-36.693333-35.712-30.378667-62.762667-97.28-36.608-162.389334-5.930667 11.392-10.752 28.885333-24.149333 28.074667-42.282667-2.56-32.768-51.712-22.741334-70.186667 9.984-18.474667 29.226667-32.853333 50.773334-33.706666a12.672 12.672 0 0 0 7.594666-1.664c1.365333-1.28 2.346667-2.901333 2.773334-4.693334 11.392-32.597333 20.949333-60.373333 48.853333-84.266666 23.594667-20.181333 55.893333-35.328 82.944-29.397334 27.050667-5.930667 59.306667 9.216 82.901333 29.397334 27.946667 23.893333 37.632 51.626667 48.853334 84.224a9.941333 9.941333 0 0 0 2.816 4.736 12.544 12.544 0 0 0 7.594666 1.706666c21.589333 0.853333 40.832 15.36 50.773334 33.664 10.026667 18.261333 19.413333 67.626667-22.912 70.186667zM337.322667 192.98133299999995L305.877333-128h351.317334l8.618666 313.642667-162.56-5.930667-165.973333 13.226667zM360.106667 458.282667s-6.016 56.917333 10.794666 77.909333c0 0-8.96 41.472 38.4 67.456 47.36 26.026667 163.413333 33.152 203.562667-11.818667 40.234667-44.970667 21.333333-63.914667 21.333333-63.914666s23.04-52.608 17.792-69.632c0 0 10.026667 25.728 24.149334 28.074666 0 0 8.96 78.72-5.674667 128.597334 0 0 22.186667 14.72 19.242667 35.242666-2.986667 20.565333-108.16 129.450667-239.232 95.317334-54.528-14.208-108.970667-67.328-118.912-105.898667-11.861333-46.122667-9.002667-67.797333-9.002667-67.797333s3.797333-62.848 18.944-87.210667c7.68-7.68 13.952-16.554667 18.56-26.325333zM562.432-128c-10.24 83.456-30.293333 255.488-30.293333 255.488l-39.082667-6.144c0-2.730667-18.090667-167.808-26.965333-249.344h96.341333zM529.28 106.66666699999996H499.2a18.005333 18.005333 0 0 0-17.408 13.312l-9.173333 33.792a18.005333 18.005333 0 0 0 17.408 22.784h48.554666a18.005333 18.005333 0 0 0 17.408-22.784l-9.173333-33.792a18.090667 18.090667 0 0 0-17.493333-13.312zM417.450667 248.96000000000004l-58.752-42.496s-173.738667-56.234667-204.458667-100.992C123.52 60.71466699999996 123.306667-128 123.306667-128h297.258666c-43.264 278.613333-3.072 376.96-3.072 376.96zM421.845333 254.12266699999998s45.525333-58.112 91.008-74.410667l-35.626666-10.112-18.986667-85.290667-95.232 81.237334 30.848 81.237333 27.989333 7.338667zM411.818667 260.821333L345.6 217.13066700000002a6.485333 6.485333 0 0 1-2.773333-3.797334l-42.794667-133.845333 59.306667-18.389333-63.530667-47.018667 22.784-142.08h118.912c-6.058667 52.181333-30.293333 273.834667-15.146667 382.122667a6.826667 6.826667 0 0 1-10.538666 6.698666zM666.794667 206.506667l-58.709334 42.453333s40.192-98.304-3.072-376.96h297.258667s-0.256 188.757333-31.018667 233.472c-30.72 44.714667-204.458667 100.992-204.458666 100.992zM605.568 254.12266699999998s-45.525333-58.112-90.837333-74.410667l35.669333-10.112 18.944-85.290667 95.061333 81.237334-30.890666 81.237333-27.946667 7.338667zM723.626667 79.48800000000006l-42.837334 134.144a6.485333 6.485333 0 0 1-2.730666 3.797333l-66.218667 43.52a6.826667 6.826667 0 0 1-10.581333-6.656c14.890667-108.330667-9.258667-329.941333-15.146667-382.122666h118.912l22.784 142.08-63.36 47.018666 59.136 18.218667z"  horiz-adv-x="1024" />
      
      <glyph glyph-name="swl_sidebar_b" unicode="&#58905;" d="M512 793.6a31.1296 31.1296 0 0 0 18.944-6.3488l302.4896-232.704a28.9792 28.9792 0 0 0 11.3664-22.6816v-465.3568a27.9552 27.9552 0 0 0-8.8576-20.5312 30.1056 30.1056 0 0 0-15.5136-7.9872 31.3856 31.3856 0 0 0-5.888-0.512h-201.0112l0.3584 1.2288a36.4544 36.4544 0 0 1 1.024 8.448v252.0576a37.5296 37.5296 0 0 1-3.7888 16.128 28.8256 28.8256 0 0 1-6.144 8.0384 21.248 21.248 0 0 1-8.0896 4.352 17.3056 17.3056 0 0 1-4.352 0.512h-148.992a17.3056 17.3056 0 0 1-8.4992-2.2016 21.248 21.248 0 0 1-7.2704-6.2976 28.8256 28.8256 0 0 1-4.864-9.4208 35.84 35.84 0 0 1-1.6896-11.1104v-252.0576a37.5296 37.5296 0 0 1 1.28-9.728H209.4592a31.3856 31.3856 0 0 0-21.4016 8.5504 29.5424 29.5424 0 0 0-8.2944 14.848 27.904 27.904 0 0 0-0.5632 5.6832V531.8656a28.928 28.928 0 0 0 11.3664 22.7328L493.056 787.2A30.4128 30.4128 0 0 0 512 793.6zM814.592 25.600000000000023H209.408a30.8736 30.8736 0 0 0-25.088 13.1072 29.2352 29.2352 0 0 0-2.816 27.7504 29.2352 29.2352 0 0 0 16.384 15.9744 30.72 30.72 0 0 0 11.5712 2.2528h605.0816a30.8736 30.8736 0 0 0 25.1392-13.1584 29.0304 29.0304 0 0 0-8.3456-40.96 30.5152 30.5152 0 0 0-16.7936-4.9664z m30.208 29.5424a28.8256 28.8256 0 0 0-8.8576-20.8896 30.3104 30.3104 0 0 0-27.2896-8.0896 30.72 30.72 0 0 0-19.2512 12.544 29.184 29.184 0 0 0 0 32.8192 29.5936 29.5936 0 0 0 19.2512 12.5952 30.8736 30.8736 0 0 0 31.0272-12.5952 29.0304 29.0304 0 0 0 5.12-16.384z m-605.0816 0a28.7744 28.7744 0 0 0-8.8576-20.8896 30.0544 30.0544 0 0 0-21.4016-8.6528 30.8736 30.8736 0 0 0-25.1392 13.1072 29.2352 29.2352 0 0 0-2.816 27.7504 29.2352 29.2352 0 0 0 16.384 15.9744 30.72 30.72 0 0 0 39.5264-15.9744 28.9792 28.9792 0 0 0 2.304-11.3152z"  horiz-adv-x="1024" />
      
      <glyph glyph-name="shuaxin" unicode="&#59047;" d="M512-23.552c-224.768 0-407.552 182.784-407.552 407.552 0 8.704 0.512 17.408 1.024 26.112l71.68-4.608c-0.512-7.168-0.512-14.336-0.512-21.504 0-185.344 150.528-335.872 335.872-335.872 86.528 0 168.448 32.768 230.912 92.16l49.152-52.224c-76.288-72.192-175.616-111.616-280.576-111.616zM919.552 384h-71.68c0 11.776-0.512 23.552-2.048 35.328-17.92 171.52-161.28 300.544-334.336 300.544-67.584 0-132.096-19.968-187.904-57.344L284.16 721.92C351.232 767.488 430.08 791.552 512 791.552c209.408 0 384-156.672 405.504-365.056 1.536-13.824 2.048-28.16 2.048-42.496zM140.288 605.184L28.16 404.48c-3.072-5.12 1.024-11.776 6.656-11.776h223.744c6.144 0 9.728 6.144 6.656 11.776L153.6 605.184c-3.072 5.632-10.752 5.632-13.312 0zM870.4 220.16l-112.128 200.704c-3.072 5.12 1.024 11.776 6.656 11.776h223.744c6.144 0 9.728-6.144 6.656-11.776L883.712 220.16c-2.56-5.12-10.24-5.12-13.312 0zM270.336 693.76a35.84 35.84 0 1 1 71.68 0 35.84 35.84 0 1 1-71.68 0ZM728.576 111.104a35.84 35.84 0 1 1 71.68 0 35.84 35.84 0 1 1-71.68 0Z"  horiz-adv-x="1024" />
      
      <glyph glyph-name="zgh_sidebar_a" unicode="&#58901;" d="M181.1456 742.4h275.712c15.2064 0 27.5968-12.3392 27.5968-27.5456v-275.712a27.5456 27.5456 0 0 0-27.5968-27.5968H181.1456A27.5456 27.5456 0 0 0 153.6 439.1424V714.8543999999999C153.6 730.0608 165.9392 742.4 181.1456 742.4z m0-385.9456h275.712c15.2064 0 27.5968-12.3904 27.5968-27.5968v-275.712a27.5456 27.5456 0 0 0-27.5968-27.5456H181.1456A27.5456 27.5456 0 0 0 153.6 53.145599999999945V328.85760000000005c0 15.2064 12.3392 27.5968 27.5456 27.5968z m385.9968 0h275.712c15.2064 0 27.5456-12.3904 27.5456-27.5968v-275.712a27.5456 27.5456 0 0 0-27.5456-27.5456H567.1424a27.5456 27.5456 0 0 0-27.5968 27.5456V328.85760000000005c0 15.2064 12.3904 27.5968 27.5968 27.5968zM539.5456 742.4m27.5456 0l275.7632 0q27.5456 0 27.5456-27.5456l0-275.7632q0-27.5456-27.5456-27.5456l-275.7632 0q-27.5456 0-27.5456 27.5456l0 275.7632q0 27.5456 27.5456 27.5456Z"  horiz-adv-x="1024" />
      
      <glyph glyph-name="zgh_home_top_head" unicode="&#58902;" d="M616.106667 212.22400000000005c-1.536 2.474667-3.797333 5.290667-7.381334 12.074667-9.557333 17.322667-17.28 82.346667-10.154666 107.776 2.389333 8.533333 6.784 22.442667 2.474666 29.994666-7.978667 13.952-20.48 27.477333-34.133333 32.938667-20.053333 7.936-33.152 7.936-54.912 5.546667-21.674667 2.56-34.816 2.432-54.784-5.546667-13.653333-5.461333-26.154667-18.986667-34.133333-32.938667-4.352-7.594667 0-21.461333 2.389333-29.994666 7.168-25.429333-0.554667-90.453333-10.112-107.776-4.266667-7.594667-6.4-10.325333-7.978667-13.098667 0 0-155.733333-175.061333-174.506666-335.573333H791.04s-91.306667 222.464-174.933333 336.64zM676.138667 486.4c-13.397333 0.810667-18.218667-16.554667-24.149334-28.074667 26.154667 65.109333-0.896 132.053333-36.608 162.389334-27.52 23.338667-67.968 35.157333-109.354666 36.693333-41.386667-1.536-81.834667-13.354667-109.354667-36.693333-35.712-30.378667-62.762667-97.28-36.608-162.389334-5.930667 11.392-10.752 28.885333-24.149333 28.074667-42.282667-2.56-32.768-51.712-22.741334-70.186667 9.984-18.474667 29.226667-32.853333 50.773334-33.706666a12.672 12.672 0 0 0 7.594666-1.664c1.365333-1.28 2.346667-2.901333 2.773334-4.693334 11.392-32.597333 20.949333-60.373333 48.853333-84.266666 23.594667-20.181333 55.893333-35.328 82.944-29.397334 27.050667-5.930667 59.306667 9.216 82.901333 29.397334 27.946667 23.893333 37.632 51.626667 48.853334 84.224a9.941333 9.941333 0 0 0 2.816 4.736 12.544 12.544 0 0 0 7.594666 1.706666c21.589333 0.853333 40.832 15.36 50.773334 33.664 10.026667 18.261333 19.413333 67.626667-22.912 70.186667zM337.322667 192.98133299999995L305.877333-128h351.317334l8.618666 313.642667-162.56-5.930667-165.973333 13.226667zM360.106667 458.282667s-6.016 56.917333 10.794666 77.909333c0 0-8.96 41.472 38.4 67.456 47.36 26.026667 163.413333 33.152 203.562667-11.818667 40.234667-44.970667 21.333333-63.914667 21.333333-63.914666s23.04-52.608 17.792-69.632c0 0 10.026667 25.728 24.149334 28.074666 0 0 8.96 78.72-5.674667 128.597334 0 0 22.186667 14.72 19.242667 35.242666-2.986667 20.565333-108.16 129.450667-239.232 95.317334-54.528-14.208-108.970667-67.328-118.912-105.898667-11.861333-46.122667-9.002667-67.797333-9.002667-67.797333s3.797333-62.848 18.944-87.210667c7.68-7.68 13.952-16.554667 18.56-26.325333zM562.432-128c-10.24 83.456-30.293333 255.488-30.293333 255.488l-39.082667-6.144c0-2.730667-18.090667-167.808-26.965333-249.344h96.341333zM529.28 106.66666699999996H499.2a18.005333 18.005333 0 0 0-17.408 13.312l-9.173333 33.792a18.005333 18.005333 0 0 0 17.408 22.784h48.554666a18.005333 18.005333 0 0 0 17.408-22.784l-9.173333-33.792a18.090667 18.090667 0 0 0-17.493333-13.312zM417.450667 248.96000000000004l-58.752-42.496s-173.738667-56.234667-204.458667-100.992C123.52 60.71466699999996 123.306667-128 123.306667-128h297.258666c-43.264 278.613333-3.072 376.96-3.072 376.96zM421.845333 254.12266699999998s45.525333-58.112 91.008-74.410667l-35.626666-10.112-18.986667-85.290667-95.232 81.237334 30.848 81.237333 27.989333 7.338667zM411.818667 260.821333L345.6 217.13066700000002a6.485333 6.485333 0 0 1-2.773333-3.797334l-42.794667-133.845333 59.306667-18.389333-63.530667-47.018667 22.784-142.08h118.912c-6.058667 52.181333-30.293333 273.834667-15.146667 382.122667a6.826667 6.826667 0 0 1-10.538666 6.698666zM666.794667 206.506667l-58.709334 42.453333s40.192-98.304-3.072-376.96h297.258667s-0.256 188.757333-31.018667 233.472c-30.72 44.714667-204.458667 100.992-204.458666 100.992zM605.568 254.12266699999998s-45.525333-58.112-90.837333-74.410667l35.669333-10.112 18.944-85.290667 95.061333 81.237334-30.890666 81.237333-27.946667 7.338667zM723.626667 79.48800000000006l-42.837334 134.144a6.485333 6.485333 0 0 1-2.730666 3.797333l-66.218667 43.52a6.826667 6.826667 0 0 1-10.581333-6.656c14.890667-108.330667-9.258667-329.941333-15.146667-382.122666h118.912l22.784 142.08-63.36 47.018666 59.136 18.218667z"  horiz-adv-x="1024" />
      
      <glyph glyph-name="zgh_sidebar_b" unicode="&#58900;" d="M512 793.6a31.1296 31.1296 0 0 0 18.944-6.3488l302.4896-232.704a28.9792 28.9792 0 0 0 11.3664-22.6816v-465.3568a27.9552 27.9552 0 0 0-8.8576-20.5312 30.1056 30.1056 0 0 0-15.5136-7.9872 31.3856 31.3856 0 0 0-5.888-0.512h-201.0112l0.3584 1.2288a36.4544 36.4544 0 0 1 1.024 8.448v252.0576a37.5296 37.5296 0 0 1-3.7888 16.128 28.8256 28.8256 0 0 1-6.144 8.0384 21.248 21.248 0 0 1-8.0896 4.352 17.3056 17.3056 0 0 1-4.352 0.512h-148.992a17.3056 17.3056 0 0 1-8.4992-2.2016 21.248 21.248 0 0 1-7.2704-6.2976 28.8256 28.8256 0 0 1-4.864-9.4208 35.84 35.84 0 0 1-1.6896-11.1104v-252.0576a37.5296 37.5296 0 0 1 1.28-9.728H209.4592a31.3856 31.3856 0 0 0-21.4016 8.5504 29.5424 29.5424 0 0 0-8.2944 14.848 27.904 27.904 0 0 0-0.5632 5.6832V531.8656a28.928 28.928 0 0 0 11.3664 22.7328L493.056 787.2A30.4128 30.4128 0 0 0 512 793.6zM814.592 25.600000000000023H209.408a30.8736 30.8736 0 0 0-25.088 13.1072 29.2352 29.2352 0 0 0-2.816 27.7504 29.2352 29.2352 0 0 0 16.384 15.9744 30.72 30.72 0 0 0 11.5712 2.2528h605.0816a30.8736 30.8736 0 0 0 25.1392-13.1584 29.0304 29.0304 0 0 0-8.3456-40.96 30.5152 30.5152 0 0 0-16.7936-4.9664z m30.208 29.5424a28.8256 28.8256 0 0 0-8.8576-20.8896 30.3104 30.3104 0 0 0-27.2896-8.0896 30.72 30.72 0 0 0-19.2512 12.544 29.184 29.184 0 0 0 0 32.8192 29.5936 29.5936 0 0 0 19.2512 12.5952 30.8736 30.8736 0 0 0 31.0272-12.5952 29.0304 29.0304 0 0 0 5.12-16.384z m-605.0816 0a28.7744 28.7744 0 0 0-8.8576-20.8896 30.0544 30.0544 0 0 0-21.4016-8.6528 30.8736 30.8736 0 0 0-25.1392 13.1072 29.2352 29.2352 0 0 0-2.816 27.7504 29.2352 29.2352 0 0 0 16.384 15.9744 30.72 30.72 0 0 0 39.5264-15.9744 28.9792 28.9792 0 0 0 2.304-11.3152z"  horiz-adv-x="1024" />
      
      <glyph glyph-name="addNode" unicode="&#58899;" d="M512-127.91466700000001c-281.315556 0-509.269333 229.205333-509.269333 511.943111C2.730667 666.823111 230.684444 895.971556 512 895.971556c281.230222 0 509.240889-229.148444 509.240889-511.943112 0-282.794667-227.925333-511.943111-509.240889-511.943111z m0 955.704889c-243.768889 0-441.372444-198.656-441.372444-443.704889 0-244.963556 197.603556-443.676444 441.372444-443.676444 243.740444 0 441.287111 198.627556 441.344 443.676444 0 245.048889-197.603556 443.704889-441.344 443.704889z m234.382222-473.6h-199.822222l-0.881778-228.721778c0-8.476444 1.820444-44.8-37.432889-44.8-37.262222 0-33.536 23.978667-33.536 42.069334l0.085334 231.395555H255.260444c-14.336 0-31.374222-0.085333-31.374222 43.747556 0 32.568889 39.850667 28.871111 39.850667 28.871111h211.057778V647.452444c0 14.449778 11.121778 27.306667 35.84 25.856 24.718222-1.422222 35.84-11.463111 35.84-25.856v-220.700444h199.850666s45.539556 5.944889 45.084445-34.588444c-0.483556-40.561778-35.868444-37.973333-45.027556-37.973334z"  horiz-adv-x="1024" />
      
      <glyph glyph-name="a-icondaxiaomobandefuben11-01" unicode="&#59064;" d="M415.410321 345.656793h-267.696366a28.376224 28.376224 0 1 0 0 56.742216h267.696366a28.376224 28.376224 0 1 0 0-56.742216zM873.615222 696.58872H606.00072a28.376224 28.376224 0 0 0 0 56.752448h267.696366a28.376224 28.376224 0 1 0-0.081864-56.752448z m0-684.846305H606.00072a28.376224 28.376224 0 0 0 0 56.742215h267.696366a28.376224 28.376224 0 1 0-0.081864-56.742215z m0 333.914378h-78.722789a28.376224 28.376224 0 1 0 0 56.742216h78.722789a28.376224 28.376224 0 1 0 0-56.742216zM226.436743 696.58872h-78.722788a28.376224 28.376224 0 0 0 0 56.752448h78.722788a28.376224 28.376224 0 0 0 0-56.752448z m0-684.846305h-78.722788a28.376224 28.376224 0 1 0 0 56.742215h78.722788a28.376224 28.376224 0 0 0 0-56.742215zM416.177799 620.168366A104.714714 104.714714 0 1 0 520.88228 724.88308a104.796578 104.796578 0 0 0-104.704481-104.714714z m0-684.856538A104.714714 104.714714 0 1 0 520.88228 40.026542a104.796578 104.796578 0 0 0-104.704481-104.714714z m0 837.625615a48.095295 48.095295 0 1 1 48.095295-48.095296 48.095295 48.095295 0 0 1-48.095295 48.095296z m0-684.856538a48.095295 48.095295 0 1 1 48.095295-48.095295 48.095295 48.095295 0 0 1-48.095295 48.095295zM616.049566 269.318304a104.714714 104.714714 0 1 0 104.714714 104.704481A104.796578 104.796578 0 0 0 616.049566 269.318304z m0 152.758844a48.095295 48.095295 0 1 1 48.095295-48.095296 48.095295 48.095295 0 0 1-48.095295 48.095296z"  horiz-adv-x="1024" />
      
      <glyph glyph-name="sidebar_j" unicode="&#58898;" d="M247.9616 319.744a20.48 20.48 0 0 0 14.1312-5.632l2.56-3.0208 49.5616-69.9392a30.72 30.72 0 0 1 20.1216-12.5952l4.9152-0.3584h350.0544a30.72 30.72 0 0 1 22.2208 9.5232l3.1232 3.8912 47.1552 69.1712a20.48 20.48 0 0 0 12.9536 8.6016l3.9936 0.3584h107.3664c4.5568 0 8.3968-3.072 9.5232-7.2704l0.3584-2.6112v-285.0816a24.7808 24.7808 0 0 0-20.3264-24.3712l-4.4544-0.4096H152.7808a24.7808 24.7808 0 0 0-24.3712 20.3264l-0.4096 4.4544v285.0816c0 4.5568 3.072 8.3968 7.2704 9.5232l2.6112 0.3584h110.08z m569.344 521.0112c13.6704 0 24.7808-11.0592 24.7808-24.7296v-448.8704a20.48 20.48 0 0 0-20.48-20.48h-65.024a20.48 20.48 0 0 1-16.9984-9.1136l-40.1408-60.2624a20.48 20.48 0 0 0-17.0496-9.1136H397.4144a24.7808 24.7808 0 0 0-24.7296 24.7808V816.0256c0 13.6704 11.0592 24.7296 24.7296 24.7296h419.8912zM334.336 758.784c5.632 0 10.24-4.608 10.24-10.24v-389.12a10.24 10.24 0 0 0-10.24-10.24H185.088a10.24 10.24 0 0 0-10.24 10.24V673.8944c0 46.848 37.9904 84.8384 84.8384 84.8384H334.336z m408.9856-235.1104H470.1184a29.7984 29.7984 0 1 1 0-59.5456h273.2032a29.7984 29.7984 0 0 1 0 59.5456z m0 153.6H470.1184a29.7984 29.7984 0 1 1 0-59.5456h273.2032a29.7984 29.7984 0 0 1 0 59.5456z"  horiz-adv-x="1024" />
      
      <glyph glyph-name="sidebar_a" unicode="&#58880;" d="M536.9344 802.1504l336.7424-187.4944a51.2 51.2 0 0 0 26.3168-44.7488v-371.8144a51.2 51.2 0 0 0-26.3168-44.7488l-336.7424-187.4944a51.2 51.2 0 0 0-49.8176 0l-336.7936 187.4944a51.2 51.2 0 0 0-26.3168 44.7488V569.9072a51.2 51.2 0 0 0 26.3168 44.7488l336.7936 187.4944a51.2 51.2 0 0 0 49.8176 0zM512 576a192 192 0 1 1 0-384 192 192 0 0 1 0 384z m0-64a128 128 0 1 0 0-256 128 128 0 0 0 0 256z"  horiz-adv-x="1024" />
      
      <glyph glyph-name="sidebar_d" unicode="&#58881;" d="M921.6 435.2v-307.2a51.2 51.2 0 0 0-51.2-51.2H153.6a51.2 51.2 0 0 0-51.2 51.2V435.2h819.2zM358.4 265.5744H204.8a25.6 25.6 0 0 1 0-51.2h153.6a25.6 25.6 0 0 1 0 51.2zM102.4 640a51.2 51.2 0 0 0 51.2 51.2h716.8a51.2 51.2 0 0 0 51.2-51.2v-153.6H102.4V640z"  horiz-adv-x="1024" />
      
      <glyph glyph-name="sidebar_c" unicode="&#58882;" d="M512 793.6a409.6 409.6 0 1 0 0-819.2 409.6 409.6 0 1 0 0 819.2z m136.5504-421.888a33.792 33.792 0 0 1 34.0992 33.4848 33.792 33.792 0 0 1-34.0992 33.3824h-67.7376L675.84 562.688a33.024 33.024 0 0 1-6.8096 46.7968 34.6624 34.6624 0 0 1-47.8208-6.656L512 460.1344 402.7904 602.7264a34.6624 34.6624 0 0 1-47.8208 6.7072 33.024 33.024 0 0 1-6.8096-46.7968l95.0272-124.0576H375.4496a33.792 33.792 0 0 1-34.0992-33.3824 33.792 33.792 0 0 1 34.0992-33.4336h102.4v-53.5552h-102.4a33.792 33.792 0 0 1-34.0992-33.4336 33.792 33.792 0 0 1 34.0992-33.4336h102.4v-69.632a33.792 33.792 0 0 1 34.1504-33.4336 33.792 33.792 0 0 1 34.1504 33.4336v69.632h102.4a33.792 33.792 0 0 1 34.0992 33.4336 33.792 33.792 0 0 1-34.0992 33.4336h-102.4V371.712h102.4z"  horiz-adv-x="1024" />
      
      <glyph glyph-name="sidebar_b" unicode="&#58883;" d="M402.7904 793.6h218.4192c15.104 0 27.3408-12.2368 27.3408-27.2896V547.84a27.2896 27.2896 0 0 0-27.3408-27.2896H402.7904a27.2896 27.2896 0 0 0-27.3408 27.2896V766.3104c0 15.0528 12.288 27.2896 27.3408 27.2896zM129.6896 247.4496H348.16c15.104 0 27.2896-12.1856 27.2896-27.2896v-218.4704A27.2896 27.2896 0 0 0 348.16-25.6H129.6896A27.2896 27.2896 0 0 0 102.4 1.6896V220.16c0 15.104 12.2368 27.2896 27.2896 27.2896z m546.1504 0h218.4704c15.0528 0 27.2896-12.1856 27.2896-27.2896v-218.4704a27.2896 27.2896 0 0 0-27.2896-27.2896H675.84a27.2896 27.2896 0 0 0-27.2896 27.2896V220.16c0 15.104 12.1856 27.2896 27.2896 27.2896z m-131.072 273.1008l-0.0512-131.072h229.4272c22.272 0 40.6528-16.6912 43.3664-38.2464l0.3072-5.4784v-98.304h-65.536v76.4928H271.7184v-76.4928h-65.536v98.304c0 22.272 16.64 40.6528 38.1952 43.3664l5.4784 0.3584h229.376v131.072h65.536z"  horiz-adv-x="1024" />
      
      <glyph glyph-name="sidebar_e" unicode="&#58884;" d="M861.0816 768c19.3024 0 34.9184-15.616 34.9184-34.9184v-698.1632a34.9184 34.9184 0 0 0-34.9184-34.9184H162.9184a34.9184 34.9184 0 0 0-34.9184 34.9184V733.0816c0 19.3024 15.616 34.9184 34.9184 34.9184h698.1632z m-449.536-465.664a23.04 23.04 0 0 1-32.6144 0l-41.472-41.4208-41.472 41.472a23.04 23.04 0 0 1-32.5632-32.6144l41.472-41.472-41.472-41.472a23.04 23.04 0 0 1 32.5632-32.5632l41.472 41.472 41.472-41.472a23.04 23.04 0 0 1 32.5632 32.5632l-41.472 41.472 41.472 41.472a23.04 23.04 0 0 1 0 32.5632z m356.7104-89.3952h-163.3792a23.04 23.04 0 1 1 0-46.08h163.328a23.04 23.04 0 0 1 0 46.08z m0 76.8h-163.3792a23.04 23.04 0 1 1 0-46.08h163.328a23.04 23.04 0 0 1 0 46.08zM337.408 640.256a23.04 23.04 0 0 1-23.04-23.04V558.592H255.6928a23.04 23.04 0 1 1 0-46.08H314.368v-58.6752a23.04 23.04 0 0 1 46.08 0V512.512h58.6752a23.04 23.04 0 0 1 0 46.08H360.448V617.216a23.04 23.04 0 0 1-23.04 23.04z m430.7968-81.7152h-163.3792a23.04 23.04 0 1 1 0-46.08h163.328a23.04 23.04 0 0 1 0 46.08z"  horiz-adv-x="1024" />
      
      <glyph glyph-name="sidebar_g" unicode="&#58885;" d="M903.168 506.88a443.392 443.392 0 0 1-13.9264 37.6832 409.6 409.6 0 0 1-37.6832 69.632c-7.936 10.3936-15.7184 20.48-23.3472 30.3104A409.6 409.6 0 0 1 134.7584 543.3344c-5.1712-12.288-9.8304-24.4224-13.9264-36.4544A409.7024 409.7024 0 0 1 102.4 384a409.7024 409.7024 0 0 1 18.432-122.88 409.6 409.6 0 0 1 101.9904-167.936 409.6 409.6 0 0 1 94.208-70.4512 406.7328 406.7328 0 0 1 113.0496-40.1408 409.6 409.6 0 0 1 459.1616 242.0736 443.392 443.392 0 0 1 13.9264 37.6832c12.2368 39.424 18.432 80.384 18.432 121.6512a409.7024 409.7024 0 0 1-18.432 122.88zM512 56.32h-9.8304a335.872 335.872 0 0 0 0 54.8864 268.288 268.288 0 0 0 66.3552 114.688c14.5408 6.1952 30.1056 9.6768 45.8752 10.24a109.7728 109.7728 0 0 1 61.44 19.2512 38.5024 38.5024 0 0 1 10.6496 36.0448 137.216 137.216 0 0 1-63.8976 84.3776 188.8256 188.8256 0 0 1-57.344 9.0112 245.76 245.76 0 0 0-83.5584 15.5648 120.4224 120.4224 0 0 0-21.2992 19.2512A128.6144 128.6144 0 0 1 409.6 456.4992a58.9824 58.9824 0 0 1-47.104-12.288 150.7328 150.7328 0 0 0-96.256-24.9856A581.2224 581.2224 0 0 0 187.5968 435.2 327.68 327.68 0 0 0 512 711.68h27.4432a235.1104 235.1104 0 0 1 5.7344-86.4256A81.92 81.92 0 0 1 593.92 588.8l12.288-5.7344c4.5056-16.64 4.5056-34.1504 0-50.7904a52.8384 52.8384 0 0 1 0-33.5872 200.704 200.704 0 0 1 98.304-54.8864h9.4208a27.0336 27.0336 0 0 1 19.6608 7.3728c9.4208 11.8784 15.616 26.0096 18.0224 40.96 15.872-5.4784 33.3312-3.072 47.104 6.5536a44.6464 44.6464 0 0 1 10.24 27.0336A327.68 327.68 0 0 0 512 56.32z"  horiz-adv-x="1024" />
      
      <glyph glyph-name="sidebar_l" unicode="&#58886;" d="M512 793.6a409.6 409.6 0 1 0 0-819.2 409.6 409.6 0 0 0 0 819.2z m34.4064-192a60.3648 60.3648 0 0 1-80.0256-5.4784L302.08 428.8512a60.3648 60.3648 0 0 1 0-84.5312l164.2496-167.3216 0.768-0.768c23.808-23.3472 61.952-23.04 85.3504 0.768l164.2496 167.3216c23.04 23.4496 23.04 61.0304 0 84.48L552.448 596.1728a60.3648 60.3648 0 0 1-0.8192 0.8192z m-85.3504-248.1664l5.12-18.3808h0.512l5.12 18.3808h16.6912l-5.12-18.3808h6.656v-24.0128h-11.5712V281.6h-24.064v29.44h-11.5712v24.064h6.656l-5.12 18.3296h16.6912z m60.6208 31.488V281.6h-27.648v76.1344H438.784V281.6h-27.648V384.9216h110.592zM581.632 486.4v-19.2512h26.112v-118.272h-26.7776v-37.5808h12.032l-2.2016 28.3136h19.1488L614.4 284.7744h-88.9344v26.5216h28.7744v37.5808h-26.5216v118.272h26.7264V486.4h27.1872z m-24.064-47.8208h-10.9056v-61.1328h10.9056V438.5792z m31.232 0h-10.9568v-61.1328h10.9056V438.5792z m-76.288 9.0624v-54.1184H420.352V447.6416h92.2624z m-28.672-21.504h-34.816v-11.1104h34.816v11.1104z m39.424 57.088v-26.9312H409.6v26.9312h113.664z"  horiz-adv-x="1024" />
      
      <glyph glyph-name="sidebar_k" unicode="&#58887;" d="M458.9056 786.944A114.688 114.688 0 0 0 563.2 787.968l7.7312-4.4032 265.8816-149.8112a43.008 43.008 0 0 0 6.7072-3.8912A108.1344 108.1344 0 0 0 896 537.8048v-308.6848a108.0832 108.0832 0 0 0-50.944-90.112l-9.0112-5.1712-266.0864-149.8624c-0.768-0.512-1.536-0.9216-2.3552-1.3824l-2.304-1.3824a113.5616 113.5616 0 0 0-106.6496 0l-1.536 0.8704a57.6512 57.6512 0 0 0-4.096 2.4064L180.1216 138.24A107.8784 107.8784 0 0 0 128 230.2976V537.6c0 38.0416 19.712 72.6016 52.736 92.5184l5.6832 3.2768z m49.92-424.2944c-5.376 30.3616-56.4224 28.5696-56.4224-5.376v-136.448l0.4608-5.376c5.376-30.3616 56.4224-28.5696 56.4224 5.376v136.448z m-158.208-17.5104c-5.3248 30.3616-56.4224 28.5696-56.4224-5.3248v-119.04l0.512-5.3248c5.3248-30.3616 56.4224-28.5696 56.4224 5.3248v119.04z m316.416 85.504c-5.376 30.3104-56.4736 28.5184-56.4736-5.376v-204.3904l0.512-5.3248c5.3248-30.3616 56.4224-28.5696 56.4224 5.3248V425.2672z m-10.496 193.6896h-94.6176l-5.4784-0.4608c-31.1296-5.2224-29.2864-55.0912 5.4784-55.0912h33.7408l-10.0352-9.728C514.048 491.7248 416.256 448.512 315.904 453.12c-36.7104 1.6896-36.5056-53.8624 0-55.552 117.4528-5.376 229.5808 46.2848 312.1152 125.1328v-28.7232l0.512-5.376c5.3248-30.3616 56.4224-28.5696 56.4224 5.376V589.824l1.1264 4.5568a21.9648 21.9648 0 0 1-7.4752 19.2512 28.672 28.672 0 0 1-22.1184 10.6496z"  horiz-adv-x="1024" />
      
      <glyph glyph-name="sidebar_n" unicode="&#58888;" d="M819.2 793.6a51.2 51.2 0 0 0 51.2-51.2v-716.8a51.2 51.2 0 0 0-51.2-51.2H256a51.2 51.2 0 0 0-51.2 51.2v102.4H153.6a51.2 51.2 0 0 0 0 102.4h51.2v102.4H153.6a51.2 51.2 0 0 0 0 102.4h51.2V537.6H153.6a51.2 51.2 0 1 0 0 102.4h51.2V742.4a51.2 51.2 0 0 0 51.2 51.2h563.2z m-183.296-192.3584L537.6 460.8512 439.296 601.2416a29.44 29.44 0 0 1-43.008 6.6048 34.56 34.56 0 0 1-6.144-46.08l85.504-122.2144H414.72c-16.9984 0-30.72-14.6944-30.72-32.9216 0-18.2272 13.7216-32.9216 30.72-32.9216h92.16v-52.736H414.72c-16.9984 0-30.72-14.7456-30.72-32.9216 0-18.2272 13.7216-32.9216 30.72-32.9216h92.16v-68.608c0-18.2272 13.7216-32.9216 30.72-32.9216 16.9984 0 30.72 14.6944 30.72 32.9216v68.608h92.16c16.9984 0 30.72 14.6944 30.72 32.9216 0 18.176-13.7216 32.9216-30.72 32.9216h-92.16v52.736h92.16c16.9984 0 30.72 14.6944 30.72 32.9216 0 18.2272-13.7216 32.9216-30.72 32.9216h-60.928l85.504 122.2144a34.56 34.56 0 0 1-6.144 46.08 29.44 29.44 0 0 1-43.008-6.6048z"  horiz-adv-x="1024" />
      
      <glyph glyph-name="sidebar_f" unicode="&#58889;" d="M301.8752 691.2l9.8816-16.64a34.304 34.304 0 0 1 29.5424-16.6912 34.304 34.304 0 0 1 29.5936 16.6912L380.7744 691.2H870.4c28.2624 0 51.2-22.3744 51.2-49.92v-565.76A50.5856 50.5856 0 0 0 870.4 25.6H380.7744l-9.8304 16.64a34.304 34.304 0 0 1-29.5936 16.6912 34.304 34.304 0 0 1-29.5936-16.6912L301.8752 25.6H153.6c-28.2624 0-51.2 22.3744-51.2 49.92V641.28A50.5856 50.5856 0 0 0 153.6 691.2h148.2752z m22.3744-145.6128l-5.9904-0.256c-20.992-1.8944-31.5392-14.336-31.5392-37.1712v-299.52c0-24.9344 12.4928-37.4272 37.5296-37.4272l5.9904 0.256c21.0432 1.8944 31.5904 14.336 31.5904 37.1712v299.52c0 24.9344-12.544 37.4272-37.5808 37.4272z m375.5008-224.6144h-150.2208c-25.0368 0-37.5296-12.4928-37.5296-37.4784l0.256-5.9392c1.8944-20.992 14.336-31.488 37.2736-31.488h150.2208c25.0368 0 37.5296 12.4928 37.5296 37.4784l-0.256 5.9392c-1.8944 20.992-14.336 31.488-37.2736 31.488z m0 149.76h-150.2208c-25.0368 0-37.5296-12.4928-37.5296-37.4784l0.256-5.9392c1.8944-20.992 14.336-31.488 37.2736-31.488h150.2208c25.0368 0 37.5296 12.4928 37.5296 37.4272l-0.256 5.9904c-1.8944 20.992-14.336 31.488-37.2736 31.488z"  horiz-adv-x="1024" />
      
      <glyph glyph-name="sidebar_q" unicode="&#58890;" d="M487.936 745.4208v-289.1264a96.3584 96.3584 0 1 1 96.3584-96.4096h289.1264a385.536 385.536 0 1 0-385.536 385.536zM512 793.6a409.6 409.6 0 0 0 409.3952-396.8L921.6 384h-340.3264A96.5632 96.5632 0 0 1 512 453.2224V793.6z m230.5536-154.2144h-19.2512l-88.6784-165.632h19.2512l88.6784 165.632z m3.2768-75.264c-12.3904 0-22.1184-4.1984-28.7232-13.1072-6.1952-7.6288-9.0624-17.92-9.0624-30.6176 0-12.4928 2.8672-22.528 9.0624-30.5664 6.656-8.4992 16.384-12.9536 28.7232-12.9536 12.3904 0 21.9136 4.4544 28.5696 12.9536a50.5344 50.5344 0 0 1 8.8064 30.5664c0 12.7488-3.072 23.04-8.8064 30.6176-6.656 8.9088-16.1792 13.1584-28.5696 13.1584z m0-16.2304c5.3248 0 9.0624-2.9184 11.264-8.96 1.792-4.4544 2.6624-10.496 2.6624-18.5344 0-7.5776-0.8704-13.6192-2.4064-18.0736-2.4576-6.0416-6.1952-9.1648-11.52-9.1648-5.5296 0-9.472 2.9184-11.7248 8.704a52.1216 52.1216 0 0 0-2.6112 18.5344c0 8.0384 0.8704 14.336 2.6112 18.7904 2.2528 5.7856 6.1952 8.704 11.776 8.704zM631.808 636.2624c-12.3904 0-22.1184-4.2496-28.7744-13.1584-6.144-7.5776-9.0624-17.8688-9.0624-30.5664 0-12.544 2.8672-22.528 9.0624-30.6176 6.656-8.448 16.384-12.9536 28.7744-12.9536 12.3392 0 21.8624 4.5056 28.5184 12.9536a50.5344 50.5344 0 0 1 8.8576 30.6176c0 12.6976-3.072 22.9888-8.8576 30.5664-6.656 8.9088-16.1792 13.1584-28.5184 13.1584z m0-16.2816c5.2736 0 9.0624-2.9184 11.264-8.9088 1.7408-4.5056 2.6624-10.496 2.6624-18.5344 0-7.6288-0.9216-13.6192-2.4576-18.1248-2.4064-5.9904-6.144-9.1136-11.4688-9.1136-5.5296 0-9.5232 2.8672-11.776 8.704a52.1216 52.1216 0 0 0-2.6112 18.5344c0 8.0384 0.8704 14.2848 2.6624 18.7392 2.2016 5.7856 6.144 8.704 11.7248 8.704z"  horiz-adv-x="1024" />
      
      <glyph glyph-name="sidebar_m" unicode="&#58891;" d="M739.072 402.5856h156.8256a420.4544 420.4544 0 0 1-38.4 158.8736h-137.0112c10.9568-49.152 17.408-102.7584 18.5856-158.8736zM638.976 679.2192c-34.4576 67.6352-78.848 107.4176-123.8016 113.9712v-199.9872h157.0816a498.8928 498.8928 0 0 1-33.28 86.016z m41.7792-117.76h-165.4784v-158.9248h185.2416a774.5024 774.5024 0 0 1-19.7632 158.9248zM712.704 593.2032h128.4608c-49.152 85.76-127.4368 151.4496-220.7744 182.1696 19.8656-21.4528 37.5808-47.872 52.7872-77.7728 15.7184-30.976 28.9792-66.048 39.5776-104.448z m-39.5776-523.1104a340.3776 340.3776 0 0 0-52.8384-77.7728c95.6416 31.4368 175.5136 99.5328 224.256 188.4672H714.24c-10.752-40.704-24.4736-77.9776-41.1136-110.6944z m66.048 300.544a806.5536 806.5536 0 0 0-17.2032-158.0032h138.3936a422.2976 422.2976 0 0 1 35.6352 158.0032h-156.8256zM700.6208 370.688h-185.4464v-158.0544h167.0144c11.0592 48.384 17.5104 101.7856 18.432 158.0032z m-26.3168-189.9008h-159.1296V-25.6c44.9024 6.656 89.2928 46.3872 123.8528 114.0736 13.7216 27.0336 25.5488 58.1632 35.2768 92.3136zM460.032-25.2928V793.6H390.656v-40.2432c-77.9776-4.1472-136.6016-25.856-176.0256-64.8192-39.424-39.0144-59.1872-87.5008-59.1872-145.5616 0-42.496 9.8816-78.4896 29.5424-108.032 19.5584-29.4912 42.7008-50.944 69.5296-64.3072 26.7776-13.4144 72.192-29.184 136.192-47.5136v-172.9024c-22.1696 11.0592-38.0928 23.9616-47.8208 38.1952-9.728 14.336-17.3056 37.6832-22.9888 69.888l-191.9488-22.9376c5.7344-32.5632 14.2336-60.3136 25.6-83.456 11.3664-22.8864 27.648-44.3904 48.7424-64.256 21.0432-19.8144 46.08-35.4816 75.0592-46.6944 28.9792-11.2128 66.7136-18.944 113.3056-23.296v-42.9568h69.3248zM348.6208 528.1792a61.0816 61.0816 0 0 0-12.1344 37.5808c0 13.7728 4.096 25.7536 11.9296 35.9424 7.8848 10.0352 21.9648 18.5344 42.2912 25.4976v-125.7472c-20.0704 7.168-34.0992 16.0768-42.0864 26.7264z"  horiz-adv-x="1024" />
      
      <glyph glyph-name="sidebar_i" unicode="&#58892;" d="M707.328 793.6c8.4992 0 16.64-3.3792 22.6304-9.3696l105.472-105.2672a32.0512 32.0512 0 0 0 9.3696-22.6816v-641.8432c0-22.1184-17.92-40.0384-40.0384-40.0384H219.2384a40.0384 40.0384 0 0 0-40.0384 40.0384V753.5616c0 22.1184 17.92 40.0384 40.0384 40.0384h488.0896z m-59.5456-436.3776a28.5696 28.5696 0 0 1-40.0896 0l-135.7824-133.7344-57.3952 56.576a28.5696 28.5696 0 0 1-40.1408 0 27.8016 27.8016 0 0 1 0-39.5264l75.9808-74.752 1.3312-1.6896c7.4752-7.3216 17.92-9.728 27.392-7.2192a28.4672 28.4672 0 0 1 12.9536 7.3216 31.8464 31.8464 0 0 1 1.28 1.3312l154.4704 152.1664a27.8016 27.8016 0 0 1 0 39.5264z m0.8192 212.992H375.3984a29.7984 29.7984 0 0 1 0-59.5968h273.2032a29.7984 29.7984 0 0 1 0 59.5456z"  horiz-adv-x="1024" />
      
      <glyph glyph-name="sidebar_r" unicode="&#58893;" d="M892.3136 79.9232c16.1792 0 29.2864-12.032 29.2864-26.88 0-14.848-13.1072-26.88-29.2864-26.88L131.6864 25.6C115.5072 25.6 102.4 37.7344 102.4 52.5312c0 14.848 13.1072 26.88 29.2864 26.88l760.6272 0.5632zM863.0272 742.4C895.2832 742.4 921.6 717.5168 921.6 686.8992v-498.688c0-30.5664-26.2656-55.4496-58.5728-55.4496H160.9728c-32.3584 0-58.5728 24.832-58.5728 55.5008V686.8992C102.4 717.5168 128.6656 742.4 160.9728 742.4h702.0544zM481.3824 622.9504H410.3168a22.8864 22.8864 0 0 1-19.6096-10.496l-35.4304-57.344a19.712 19.712 0 0 1 0-20.9408l35.4304-57.344a22.8864 22.8864 0 0 1 19.6096-10.4448h15.6672l-5.888-37.7344H379.904a22.8864 22.8864 0 0 1-19.456-10.496l-50.2272-80.9984a19.712 19.712 0 0 1 0-20.992l49.7664-80.9472a22.8864 22.8864 0 0 1 19.456-10.496h101.0176a22.8864 22.8864 0 0 1 19.456 10.496l50.2784 80.9984a19.712 19.712 0 0 1 0 20.992l-18.176 29.2864 39.68 16.5888a23.04 23.04 0 0 1 17.9712-8.704h69.8368a22.8864 22.8864 0 0 1 19.456 10.4448l34.816 56.1664a19.712 19.712 0 0 1 0 20.992l-34.816 56.1664a22.8864 22.8864 0 0 1-19.456 10.496h-69.8368a22.8864 22.8864 0 0 1-19.456-10.496l-15.2064-24.6272-31.232 20.4288 12.6464 20.224a19.712 19.712 0 0 1 0 20.992l-35.584 57.2928a22.8864 22.8864 0 0 1-19.456 10.496z m30.72-127.232l31.0784-20.48-8.192-13.312a19.712 19.712 0 0 1 0-20.9408l24.6272-39.7824-39.424-16.4864-20.3776 33.4336a22.8864 22.8864 0 0 1-19.456 10.496H442.88l5.8368 37.7344h32.6656a22.8864 22.8864 0 0 1 19.456 10.4448l11.264 18.8928z"  horiz-adv-x="1024" />
      
      <glyph glyph-name="sidebar_o" unicode="&#58894;" d="M512 793.6c91.4944 0 175.9232-13.0048 238.848-35.1232 31.2832-11.008 59.3408-24.9856 80.3328-42.4448 19.2512-16.0256 36.7104-38.7072 38.9632-67.7376H870.4v-519.68c0-32.1024-18.176-57.1904-38.912-74.8544-20.992-17.8176-49.0496-32.1536-80.384-43.4176-62.976-22.6304-147.5584-35.9424-239.104-35.9424-91.5456 0-176.128 13.312-239.104 35.9424-31.3344 11.264-59.392 25.6-80.384 43.4176-20.736 17.664-38.912 42.752-38.912 74.8544V637.5936h0.1024A82.688 82.688 0 0 0 153.6 641.9456c0 32.1024 18.5856 56.8832 39.2192 74.0864 20.992 17.4592 49.0496 31.4368 80.3328 42.496C336.0768 780.544 420.5056 793.6 512 793.6z m282.0608-626.3808c-13.312-6.8608-27.904-12.9536-43.2128-18.3808-62.9248-22.1184-147.3536-35.072-238.848-35.072s-175.9232 12.9536-238.848 35.072a341.2992 341.2992 0 0 0-43.2128 18.432v-38.656c0-0.2048 0-1.28 1.3312-3.584a44.8512 44.8512 0 0 1 10.0864-11.264c11.4176-9.728 30.2592-20.224 56.8832-29.7984 52.8896-19.0464 128.512-31.5392 213.76-31.5392 85.2992 0 160.8704 12.4928 213.76 31.5392 26.624 9.5744 45.4656 20.0704 56.832 29.7984a44.8512 44.8512 0 0 1 10.1376 11.264c1.3312 2.304 1.3312 3.3792 1.3312 3.584v38.6048z m1.7408 119.9616c-13.312-6.8608-27.8528-12.9536-43.1616-18.3296-62.9248-22.1696-147.3536-35.1232-238.848-35.1232s-175.9744 12.9536-238.848 35.1232a341.2992 341.2992 0 0 0-43.2128 18.3296v-40.1408l0.1024-0.512a10.496 10.496 0 0 1 1.024-2.2528c1.4336-2.4064 4.352-6.144 9.984-10.8032 11.4176-9.5232 30.2592-19.8144 56.9344-29.184 52.992-18.6368 128.6656-30.8736 214.016-30.8736 85.3504 0 161.024 12.2368 214.016 30.8736 26.624 9.3696 45.5168 19.6608 56.9344 29.184a43.6224 43.6224 0 0 1 9.9328 10.752 10.496 10.496 0 0 1 1.024 2.3552l0.1024 0.3072v40.2944z m-1.7408 126.4128c-13.312-6.8608-27.904-13.0048-43.2128-18.3808-62.9248-22.1184-147.3536-35.1232-238.848-35.1232s-175.9232 13.0048-238.848 35.1232a341.2992 341.2992 0 0 0-43.2128 18.3808v-40.192l0.1024-0.4608a10.496 10.496 0 0 1 1.024-2.304c1.4336-2.4064 4.4032-6.144 9.984-10.752 11.4176-9.5744 30.2592-19.8144 56.9344-29.184 52.992-18.688 128.6656-30.9248 214.016-30.9248 85.3504 0 161.024 12.288 214.016 30.8736 26.624 9.4208 45.5168 19.6608 56.9344 29.184a43.6224 43.6224 0 0 1 9.9328 10.8032 10.496 10.496 0 0 1 1.024 2.304l0.1024 0.3584v40.2944z m0 130.2016c-13.312-6.8608-27.904-13.0048-43.2128-18.3808-62.9248-22.1184-147.3536-35.1232-238.848-35.1232s-175.9232 13.0048-238.848 35.1232a341.2992 341.2992 0 0 0-43.2128 18.3808v-47.4624l0.1024-0.4608a10.496 10.496 0 0 1 1.024-2.2528c1.4336-2.4576 4.4032-6.144 9.984-10.8544 11.4176-9.472 30.2592-19.7632 56.9344-29.184 52.992-18.6368 128.6656-30.8224 214.016-30.8224 85.3504 0 161.024 12.1856 214.016 30.8224 26.624 9.4208 45.5168 19.712 56.9344 29.184a43.6224 43.6224 0 0 1 9.9328 10.8544 10.496 10.496 0 0 1 1.024 2.2528l0.1024 0.3584V543.744zM623.36 742.4L474.2656 647.4752 401.408 696.4224 358.4 667.904 474.2656 588.8 665.6 719.616 623.36 742.4z"  horiz-adv-x="1024" />
      
      <glyph glyph-name="sidebar_p" unicode="&#58895;" d="M512.1024 590.9504c154.0608 0 278.8352-126.464 278.8352-282.368v-274.7904h95.5904c16.1792 0 29.3376-13.312 29.3376-29.696 0-16.384-13.1584-29.696-29.3376-29.696H137.728a29.8496 29.8496 0 1 0-20.7872 50.688 29.0816 29.0816 0 0 0 20.7872 8.704h95.5392v274.7904c0 155.904 124.7744 282.368 278.8352 282.368z m20.224-191.3856l-101.5808-162.4576H512l-20.3264-121.856 101.5808 162.4576H512l20.3264 121.856z m381.0816 161.9968a26.112 26.112 0 0 0 0.1536-0.2048l4.608-8.0896a26.112 26.112 0 0 0-9.472-35.4304l-78.848-46.08a362.3424 362.3424 0 0 1-32.1536 52.3264l80.0768 46.848a26.112 26.112 0 0 0 35.6352-9.3696zM146.0224 571.0848a26.112 26.112 0 0 0 0.2048-0.1536l80.1792-46.848c-12.1856-16.4352-22.9888-33.9456-32.256-52.3776l-78.848 46.08a26.112 26.112 0 0 0-9.472 35.4816l4.608 8.0896a26.112 26.112 0 0 0 35.584 9.728z m172.1344 152.064a26.112 26.112 0 0 0 0.1536-0.3072l48.5376-85.1456a354.816 354.816 0 0 1-53.248-29.8496l-48.2816 84.6848a26.112 26.112 0 0 0 9.472 35.4304l7.68 4.5056a26.112 26.112 0 0 0 35.6864-9.3696z m423.0656 9.472a26.112 26.112 0 0 0 0.256-0.1536l7.68-4.5056a26.112 26.112 0 0 0 9.5232-35.4304l-48.2304-84.5312a354.816 354.816 0 0 1-53.248 29.7984l48.4864 85.0432a26.112 26.112 0 0 0 35.5328 9.728zM516.352 793.6a26.112 26.112 0 0 0 26.112-26.112v-99.84a357.0688 357.0688 0 0 1-60.928-0.0512V767.488A26.112 26.112 0 0 0 507.6992 793.6h8.704z"  horiz-adv-x="1024" />
      
      <glyph glyph-name="sidebar_s" unicode="&#58896;" d="M796.8256 768c26.4704 0 47.9744-21.504 47.9744-48.0256v-671.9488c0-26.5216-21.504-48.0256-48.0256-48.0256H227.2256a47.9744 47.9744 0 0 0-48.0256 48.0256V719.9744c0 26.4704 21.504 47.9744 48.0256 47.9744h569.6z m-89.9072-393.5744l-76.0832-102.4-76.032 102.4a23.6544 23.6544 0 0 1-33.28 4.7616 24.1664 24.1664 0 0 1-4.7616-33.5872l66.2016-89.088h-47.2064a23.8592 23.8592 0 0 1-23.7568-24.0128c0-13.312 10.5984-24.0128 23.7568-24.0128h71.3216v-38.4512h-71.3216a23.8592 23.8592 0 0 1-23.7568-24.0128c0-13.312 10.5984-24.0128 23.7568-24.0128h71.3216v-50.0224c0-13.2608 10.6496-23.9616 23.7568-23.9616 13.1584 0 23.808 10.7008 23.808 23.9616v50.0224h71.3216c13.1072 0 23.7568 10.752 23.7568 24.064a23.8592 23.8592 0 0 1-23.7568 23.9616h-71.3216v38.4512h71.3216c13.1072 0 23.7568 10.752 23.7568 24.064a23.8592 23.8592 0 0 1-23.7568 23.9616h-47.2064l66.2016 89.088a24.1664 24.1664 0 0 1-4.7616 33.5872 23.6544 23.6544 0 0 1-33.28-4.7616z m-223.744 119.9616H303.104a28.8256 28.8256 0 0 1 0-57.6h180.1216a28.8256 28.8256 0 0 1 0 57.6z m237.7216 129.6384H303.104a28.8256 28.8256 0 0 1 0-57.6h417.792a28.7744 28.7744 0 1 1 0 57.6z"  horiz-adv-x="1024" />
      
      <glyph glyph-name="sidebar_h" unicode="&#58897;" d="M720.6912 349.0304l-118.9376-119.296a29.7984 29.7984 0 0 0-21.0944-8.704h-0.768a29.7984 29.7984 0 0 0-21.4016 9.8816l-89.9072 100.2496a29.6448 29.6448 0 0 0 2.304 41.9328 29.7984 29.7984 0 0 0 41.984-2.3552l68.9664-76.8 105.3696 105.6768a29.7472 29.7472 0 0 0 21.0944 8.704h219.5456c-15.7696 211.8656-193.024 378.88-409.4976 378.88-216.7808 0-394.2912-167.5776-409.5488-379.904h242.176l118.9376 119.2448a29.7984 29.7984 0 0 0 43.264-1.1776l89.9072-100.2496a29.6448 29.6448 0 0 0-2.304-41.8816 29.7984 29.7984 0 0 0-41.984 2.304l-68.9664 76.8-105.4208-105.6768a29.7984 29.7984 0 0 0-21.0944-8.704H108.8c15.2576-212.3776 192.768-379.9552 409.6-379.9552 217.088 0 394.9056 168.1408 409.6 381.0304h-207.3088z"  horiz-adv-x="1024" />
      
    </font>
</defs>
</svg>
